ISO-10303-21;
HEADER;
/* Generated by software containing ST-Developer
 * from STEP Tools, Inc. (www.steptools.com) 
 */

FILE_DESCRIPTION(
/* description */ (''),
/* implementation_level */ '2;1');

FILE_NAME(
/* name */ 'ErgoWarrior_v1.0.0_R_Bottom_Plate.step',
/* time_stamp */ '2025-11-30T08:16:13+05:30',
/* author */ (''),
/* organization */ (''),
/* preprocessor_version */ 'ST-DEVELOPER v20.1',
/* originating_system */ 'Autodesk Translation Framework v14.21.0.0',
/* authorisation */ '');

FILE_SCHEMA (('AUTOMOTIVE_DESIGN { 1 0 10303 214 3 1 1 }'));
ENDSEC;

DATA;
#10=MECHANICAL_DESIGN_GEOMETRIC_PRESENTATION_REPRESENTATION('',(#13),#1362);
#11=SHAPE_REPRESENTATION_RELATIONSHIP('SRR','None',#1369,#12);
#12=ADVANCED_BREP_SHAPE_REPRESENTATION('',(#14),#1361);
#13=STYLED_ITEM('',(#1379),#14);
#14=MANIFOLD_SOLID_BREP('Body1',#719);
#15=B_SPLINE_CURVE_WITH_KNOTS('',3,(#1047,#1048,#1049,#1050,#1051,#1052,
#1053),.UNSPECIFIED.,.F.,.F.,(4,3,4),(-0.0810576028655024,-0.0405288014327512,
0.),.UNSPECIFIED.);
#16=B_SPLINE_CURVE_WITH_KNOTS('',3,(#1055,#1056,#1057,#1058),
 .UNSPECIFIED.,.F.,.F.,(4,4),(-0.35,-4.16333501885536E-17),
 .UNSPECIFIED.);
#17=B_SPLINE_CURVE_WITH_KNOTS('',3,(#1060,#1061,#1062,#1063,#1064,#1065,
#1066),.UNSPECIFIED.,.F.,.F.,(4,3,4),(0.,0.0405288014327524,0.0810576028655049),
 .UNSPECIFIED.);
#18=B_SPLINE_CURVE_WITH_KNOTS('',3,(#1067,#1068,#1069,#1070),
 .UNSPECIFIED.,.F.,.F.,(4,4),(4.16333501885536E-17,0.35),.UNSPECIFIED.);
#19=B_SPLINE_CURVE_WITH_KNOTS('',3,(#1073,#1074,#1075,#1076,#1077,#1078,
#1079),.UNSPECIFIED.,.F.,.F.,(4,3,4),(4.78199601512236,5.99101466856896,
6.24012914901751),.UNSPECIFIED.);
#20=B_SPLINE_CURVE_WITH_KNOTS('',3,(#1081,#1082,#1083,#1084),
 .UNSPECIFIED.,.F.,.F.,(4,4),(6.24022960780731,7.66436763487918),
 .UNSPECIFIED.);
#21=B_SPLINE_CURVE_WITH_KNOTS('',3,(#1094,#1095,#1096,#1097,#1098,#1099,
#1100,#1101,#1102,#1103,#1104,#1105,#1106),.UNSPECIFIED.,.F.,.F.,(4,3,3,
3,4),(0.,2.87355751194218,3.27947728208601,3.40758745072976,3.497345826939),
 .UNSPECIFIED.);
#22=B_SPLINE_CURVE_WITH_KNOTS('',3,(#1108,#1109,#1110,#1111,#1112,#1113,
#1114),.UNSPECIFIED.,.F.,.F.,(4,3,4),(0.,0.123708882348849,0.213562047443349),
 .UNSPECIFIED.);
#23=B_SPLINE_CURVE_WITH_KNOTS('',3,(#1153,#1154,#1155,#1156,#1157,#1158,
#1159),.UNSPECIFIED.,.F.,.F.,(4,3,4),(-1.35376491333575,-0.23128371632896,
0.),.UNSPECIFIED.);
#24=B_SPLINE_CURVE_WITH_KNOTS('',3,(#1188,#1189,#1190,#1191),
 .UNSPECIFIED.,.F.,.F.,(4,4),(0.25,0.35),.UNSPECIFIED.);
#25=B_SPLINE_CURVE_WITH_KNOTS('',3,(#1198,#1199,#1200,#1201),
 .UNSPECIFIED.,.F.,.F.,(4,4),(0.0217915011370349,0.0512378672609836),
 .UNSPECIFIED.);
#26=B_SPLINE_CURVE_WITH_KNOTS('',3,(#1216,#1217,#1218,#1219,#1220,#1221,
#1222),.UNSPECIFIED.,.F.,.F.,(4,3,4),(-0.264807133820524,-0.141093935595821,
-0.0217915011370349),.UNSPECIFIED.);
#27=B_SPLINE_CURVE_WITH_KNOTS('',3,(#1224,#1225,#1226,#1227,#1228,#1229,
#1230,#1231,#1232,#1233,#1234,#1235,#1236),.UNSPECIFIED.,.F.,.F.,(4,3,3,
3,4),(-0.521802801707532,-0.093069003336924,-0.0325059124072197,-0.0133919190438458,
0.),.UNSPECIFIED.);
#28=B_SPLINE_CURVE_WITH_KNOTS('',3,(#1245,#1246,#1247,#1248),
 .UNSPECIFIED.,.F.,.F.,(4,4),(-1.73645103834156,2.22044604925031E-16),
 .UNSPECIFIED.);
#29=B_SPLINE_CURVE_WITH_KNOTS('',3,(#1285,#1286,#1287,#1288),
 .UNSPECIFIED.,.F.,.F.,(4,4),(-0.4,-0.3),.UNSPECIFIED.);
#30=B_SPLINE_CURVE_WITH_KNOTS('',3,(#1290,#1291,#1292,#1293,#1294,#1295),
 .UNSPECIFIED.,.F.,.F.,(4,2,4),(0.05,0.2,0.3),.UNSPECIFIED.);
#31=B_SPLINE_SURFACE_WITH_KNOTS('',3,3,((#1025,#1026,#1027,#1028),(#1029,
#1030,#1031,#1032),(#1033,#1034,#1035,#1036),(#1037,#1038,#1039,#1040),
(#1041,#1042,#1043,#1044)),.UNSPECIFIED.,.F.,.F.,.F.,(4,1,4),(4,4),(0.,
0.5,1.),(4.16333501885536E-17,0.35),.UNSPECIFIED.);
#32=B_SPLINE_SURFACE_WITH_KNOTS('',3,1,((#1120,#1121),(#1122,#1123),(#1124,
#1125),(#1126,#1127),(#1128,#1129),(#1130,#1131),(#1132,#1133),(#1134,#1135),
(#1136,#1137),(#1138,#1139),(#1140,#1141),(#1142,#1143),(#1144,#1145),(#1146,
#1147),(#1148,#1149),(#1150,#1151)),.UNSPECIFIED.,.F.,.F.,.F.,(4,3,3,3,
3,4),(2,2),(1.78922862155787,1.91458828949096,3.22219486292477,4.58077863680345,
5.99101466856896,6.24012914901751),(0.,0.4),.UNSPECIFIED.);
#33=B_SPLINE_SURFACE_WITH_KNOTS('',3,1,((#1299,#1300),(#1301,#1302),(#1303,
#1304),(#1305,#1306)),.UNSPECIFIED.,.F.,.F.,.F.,(4,4),(2,2),(6.24022960780731,
7.66436763487918),(0.,0.4),.UNSPECIFIED.);
#34=B_SPLINE_SURFACE_WITH_KNOTS('',3,1,((#1308,#1309),(#1310,#1311),(#1312,
#1313),(#1314,#1315),(#1316,#1317),(#1318,#1319),(#1320,#1321),(#1322,#1323),
(#1324,#1325)),.UNSPECIFIED.,.F.,.F.,.F.,(4,2,3,4),(2,2),(0.,0.123708882348848,
0.243007243809657,0.264797868323495),(0.,0.4),.UNSPECIFIED.);
#35=B_SPLINE_SURFACE_WITH_KNOTS('',3,1,((#1327,#1328),(#1329,#1330),(#1331,
#1332),(#1333,#1334),(#1335,#1336),(#1337,#1338),(#1339,#1340),(#1341,#1342),
(#1343,#1344),(#1345,#1346),(#1347,#1348),(#1349,#1350)),.UNSPECIFIED.,
 .F.,.F.,.F.,(4,2,2,2,2,4),(2,2),(0.,1.95609502506468,2.87355751194218,
3.27947728208601,3.40758745072976,3.497345826939),(0.,0.4),
 .UNSPECIFIED.);
#36=ELLIPSE('',#742,4.02622164080522,1.5);
#37=ELLIPSE('',#757,1.63107379189301,1.5);
#38=ELLIPSE('',#760,1.52846956637486,1.5);
#39=ELLIPSE('',#761,2.66848022536662,1.5);
#40=ELLIPSE('',#762,1.58570983647458,1.5);
#41=FACE_BOUND('',#121,.T.);
#42=FACE_BOUND('',#131,.T.);
#43=FACE_BOUND('',#132,.T.);
#44=FACE_BOUND('',#133,.T.);
#45=FACE_BOUND('',#134,.T.);
#46=FACE_BOUND('',#135,.T.);
#47=FACE_BOUND('',#145,.T.);
#48=FACE_BOUND('',#146,.T.);
#49=FACE_BOUND('',#147,.T.);
#50=FACE_BOUND('',#148,.T.);
#51=FACE_BOUND('',#149,.T.);
#52=FACE_BOUND('',#155,.T.);
#53=FACE_BOUND('',#157,.T.);
#54=FACE_BOUND('',#159,.T.);
#55=FACE_BOUND('',#161,.T.);
#56=PLANE('',#736);
#57=PLANE('',#740);
#58=PLANE('',#741);
#59=PLANE('',#755);
#60=PLANE('',#758);
#61=PLANE('',#763);
#62=PLANE('',#764);
#63=PLANE('',#765);
#64=PLANE('',#766);
#65=PLANE('',#767);
#66=PLANE('',#780);
#67=PLANE('',#781);
#68=PLANE('',#782);
#69=PLANE('',#783);
#70=PLANE('',#784);
#71=PLANE('',#785);
#72=PLANE('',#786);
#73=PLANE('',#787);
#74=PLANE('',#788);
#75=PLANE('',#789);
#76=PLANE('',#790);
#77=PLANE('',#791);
#78=PLANE('',#792);
#79=FACE_OUTER_BOUND('',#119,.T.);
#80=FACE_OUTER_BOUND('',#120,.T.);
#81=FACE_OUTER_BOUND('',#122,.T.);
#82=FACE_OUTER_BOUND('',#123,.T.);
#83=FACE_OUTER_BOUND('',#124,.T.);
#84=FACE_OUTER_BOUND('',#125,.T.);
#85=FACE_OUTER_BOUND('',#126,.T.);
#86=FACE_OUTER_BOUND('',#127,.T.);
#87=FACE_OUTER_BOUND('',#128,.T.);
#88=FACE_OUTER_BOUND('',#129,.T.);
#89=FACE_OUTER_BOUND('',#130,.T.);
#90=FACE_OUTER_BOUND('',#136,.T.);
#91=FACE_OUTER_BOUND('',#137,.T.);
#92=FACE_OUTER_BOUND('',#138,.T.);
#93=FACE_OUTER_BOUND('',#139,.T.);
#94=FACE_OUTER_BOUND('',#140,.T.);
#95=FACE_OUTER_BOUND('',#141,.T.);
#96=FACE_OUTER_BOUND('',#142,.T.);
#97=FACE_OUTER_BOUND('',#143,.T.);
#98=FACE_OUTER_BOUND('',#144,.T.);
#99=FACE_OUTER_BOUND('',#150,.T.);
#100=FACE_OUTER_BOUND('',#151,.T.);
#101=FACE_OUTER_BOUND('',#152,.T.);
#102=FACE_OUTER_BOUND('',#153,.T.);
#103=FACE_OUTER_BOUND('',#154,.T.);
#104=FACE_OUTER_BOUND('',#156,.T.);
#105=FACE_OUTER_BOUND('',#158,.T.);
#106=FACE_OUTER_BOUND('',#160,.T.);
#107=FACE_OUTER_BOUND('',#162,.T.);
#108=FACE_OUTER_BOUND('',#163,.T.);
#109=FACE_OUTER_BOUND('',#164,.T.);
#110=FACE_OUTER_BOUND('',#165,.T.);
#111=FACE_OUTER_BOUND('',#166,.T.);
#112=FACE_OUTER_BOUND('',#167,.T.);
#113=FACE_OUTER_BOUND('',#168,.T.);
#114=FACE_OUTER_BOUND('',#169,.T.);
#115=FACE_OUTER_BOUND('',#170,.T.);
#116=FACE_OUTER_BOUND('',#171,.T.);
#117=FACE_OUTER_BOUND('',#172,.T.);
#118=FACE_OUTER_BOUND('',#173,.T.);
#119=EDGE_LOOP('',(#471,#472,#473,#474));
#120=EDGE_LOOP('',(#475));
#121=EDGE_LOOP('',(#476));
#122=EDGE_LOOP('',(#477,#478,#479,#480));
#123=EDGE_LOOP('',(#481,#482,#483,#484));
#124=EDGE_LOOP('',(#485,#486,#487,#488));
#125=EDGE_LOOP('',(#489,#490,#491,#492));
#126=EDGE_LOOP('',(#493,#494,#495,#496));
#127=EDGE_LOOP('',(#497,#498,#499,#500));
#128=EDGE_LOOP('',(#501,#502,#503,#504));
#129=EDGE_LOOP('',(#505,#506,#507,#508));
#130=EDGE_LOOP('',(#509,#510,#511,#512,#513,#514,#515,#516,#517,#518,#519,
#520));
#131=EDGE_LOOP('',(#521));
#132=EDGE_LOOP('',(#522));
#133=EDGE_LOOP('',(#523));
#134=EDGE_LOOP('',(#524));
#135=EDGE_LOOP('',(#525));
#136=EDGE_LOOP('',(#526,#527,#528,#529));
#137=EDGE_LOOP('',(#530,#531,#532,#533));
#138=EDGE_LOOP('',(#534,#535,#536,#537,#538,#539));
#139=EDGE_LOOP('',(#540,#541,#542,#543,#544));
#140=EDGE_LOOP('',(#545,#546,#547,#548));
#141=EDGE_LOOP('',(#549,#550,#551));
#142=EDGE_LOOP('',(#552,#553,#554,#555));
#143=EDGE_LOOP('',(#556,#557,#558,#559,#560,#561));
#144=EDGE_LOOP('',(#562,#563,#564,#565,#566,#567,#568,#569,#570,#571,#572,
#573,#574,#575,#576,#577,#578,#579));
#145=EDGE_LOOP('',(#580));
#146=EDGE_LOOP('',(#581));
#147=EDGE_LOOP('',(#582));
#148=EDGE_LOOP('',(#583));
#149=EDGE_LOOP('',(#584));
#150=EDGE_LOOP('',(#585,#586,#587,#588));
#151=EDGE_LOOP('',(#589,#590,#591,#592));
#152=EDGE_LOOP('',(#593,#594,#595,#596));
#153=EDGE_LOOP('',(#597,#598,#599,#600));
#154=EDGE_LOOP('',(#601));
#155=EDGE_LOOP('',(#602));
#156=EDGE_LOOP('',(#603));
#157=EDGE_LOOP('',(#604));
#158=EDGE_LOOP('',(#605));
#159=EDGE_LOOP('',(#606));
#160=EDGE_LOOP('',(#607));
#161=EDGE_LOOP('',(#608));
#162=EDGE_LOOP('',(#609,#610,#611,#612,#613,#614,#615));
#163=EDGE_LOOP('',(#616,#617,#618,#619,#620,#621,#622,#623));
#164=EDGE_LOOP('',(#624,#625,#626,#627));
#165=EDGE_LOOP('',(#628,#629,#630,#631,#632));
#166=EDGE_LOOP('',(#633,#634,#635,#636));
#167=EDGE_LOOP('',(#637,#638,#639,#640));
#168=EDGE_LOOP('',(#641,#642,#643,#644,#645,#646));
#169=EDGE_LOOP('',(#647,#648,#649,#650));
#170=EDGE_LOOP('',(#651,#652,#653,#654));
#171=EDGE_LOOP('',(#655,#656,#657,#658));
#172=EDGE_LOOP('',(#659,#660,#661,#662));
#173=EDGE_LOOP('',(#663,#664,#665,#666));
#174=LINE('',#977,#231);
#175=LINE('',#984,#232);
#176=LINE('',#989,#233);
#177=LINE('',#991,#234);
#178=LINE('',#993,#235);
#179=LINE('',#994,#236);
#180=LINE('',#999,#237);
#181=LINE('',#1000,#238);
#182=LINE('',#1005,#239);
#183=LINE('',#1011,#240);
#184=LINE('',#1017,#241);
#185=LINE('',#1023,#242);
#186=LINE('',#1086,#243);
#187=LINE('',#1088,#244);
#188=LINE('',#1090,#245);
#189=LINE('',#1092,#246);
#190=LINE('',#1116,#247);
#191=LINE('',#1118,#248);
#192=LINE('',#1119,#249);
#193=LINE('',#1160,#250);
#194=LINE('',#1163,#251);
#195=LINE('',#1166,#252);
#196=LINE('',#1169,#253);
#197=LINE('',#1171,#254);
#198=LINE('',#1173,#255);
#199=LINE('',#1174,#256);
#200=LINE('',#1180,#257);
#201=LINE('',#1184,#258);
#202=LINE('',#1193,#259);
#203=LINE('',#1194,#260);
#204=LINE('',#1197,#261);
#205=LINE('',#1204,#262);
#206=LINE('',#1205,#263);
#207=LINE('',#1207,#264);
#208=LINE('',#1208,#265);
#209=LINE('',#1211,#266);
#210=LINE('',#1213,#267);
#211=LINE('',#1214,#268);
#212=LINE('',#1238,#269);
#213=LINE('',#1240,#270);
#214=LINE('',#1242,#271);
#215=LINE('',#1244,#272);
#216=LINE('',#1260,#273);
#217=LINE('',#1264,#274);
#218=LINE('',#1268,#275);
#219=LINE('',#1272,#276);
#220=LINE('',#1279,#277);
#221=LINE('',#1281,#278);
#222=LINE('',#1282,#279);
#223=LINE('',#1283,#280);
#224=LINE('',#1297,#281);
#225=LINE('',#1307,#282);
#226=LINE('',#1326,#283);
#227=LINE('',#1351,#284);
#228=LINE('',#1353,#285);
#229=LINE('',#1355,#286);
#230=LINE('',#1357,#287);
#231=VECTOR('',#799,3.);
#232=VECTOR('',#808,1.625);
#233=VECTOR('',#813,10.);
#234=VECTOR('',#814,10.);
#235=VECTOR('',#815,10.);
#236=VECTOR('',#816,10.);
#237=VECTOR('',#821,10.);
#238=VECTOR('',#822,10.);
#239=VECTOR('',#827,3.);
#240=VECTOR('',#834,3.);
#241=VECTOR('',#841,3.);
#242=VECTOR('',#848,3.);
#243=VECTOR('',#853,10.);
#244=VECTOR('',#854,10.);
#245=VECTOR('',#855,10.);
#246=VECTOR('',#856,10.);
#247=VECTOR('',#857,10.);
#248=VECTOR('',#858,10.);
#249=VECTOR('',#859,10.);
#250=VECTOR('',#860,10.);
#251=VECTOR('',#863,10.);
#252=VECTOR('',#866,10.);
#253=VECTOR('',#869,10.);
#254=VECTOR('',#870,10.);
#255=VECTOR('',#871,10.);
#256=VECTOR('',#872,10.);
#257=VECTOR('',#877,10.);
#258=VECTOR('',#880,10.);
#259=VECTOR('',#885,10.);
#260=VECTOR('',#886,10.);
#261=VECTOR('',#889,10.);
#262=VECTOR('',#892,10.);
#263=VECTOR('',#893,10.);
#264=VECTOR('',#896,10.);
#265=VECTOR('',#897,10.);
#266=VECTOR('',#900,10.);
#267=VECTOR('',#901,10.);
#268=VECTOR('',#902,10.);
#269=VECTOR('',#903,10.);
#270=VECTOR('',#904,10.);
#271=VECTOR('',#905,10.);
#272=VECTOR('',#906,10.);
#273=VECTOR('',#919,1.625);
#274=VECTOR('',#924,1.625);
#275=VECTOR('',#929,1.625);
#276=VECTOR('',#934,1.62500000000001);
#277=VECTOR('',#945,10.);
#278=VECTOR('',#946,10.);
#279=VECTOR('',#947,10.);
#280=VECTOR('',#948,10.);
#281=VECTOR('',#955,10.);
#282=VECTOR('',#958,10.);
#283=VECTOR('',#959,10.);
#284=VECTOR('',#960,10.);
#285=VECTOR('',#963,10.);
#286=VECTOR('',#966,10.);
#287=VECTOR('',#969,10.);
#288=CIRCLE('',#734,3.);
#289=CIRCLE('',#735,3.);
#290=CIRCLE('',#737,1.625);
#291=CIRCLE('',#739,1.625);
#292=CIRCLE('',#744,3.);
#293=CIRCLE('',#745,3.);
#294=CIRCLE('',#747,3.);
#295=CIRCLE('',#748,3.);
#296=CIRCLE('',#750,3.);
#297=CIRCLE('',#751,3.);
#298=CIRCLE('',#753,3.);
#299=CIRCLE('',#754,3.);
#300=CIRCLE('',#768,1.62500000000001);
#301=CIRCLE('',#769,1.625);
#302=CIRCLE('',#770,1.625);
#303=CIRCLE('',#771,1.625);
#304=CIRCLE('',#773,1.625);
#305=CIRCLE('',#775,1.625);
#306=CIRCLE('',#777,1.625);
#307=CIRCLE('',#779,1.62500000000001);
#308=VERTEX_POINT('',#974);
#309=VERTEX_POINT('',#976);
#310=VERTEX_POINT('',#980);
#311=VERTEX_POINT('',#983);
#312=VERTEX_POINT('',#987);
#313=VERTEX_POINT('',#988);
#314=VERTEX_POINT('',#990);
#315=VERTEX_POINT('',#992);
#316=VERTEX_POINT('',#996);
#317=VERTEX_POINT('',#998);
#318=VERTEX_POINT('',#1002);
#319=VERTEX_POINT('',#1004);
#320=VERTEX_POINT('',#1008);
#321=VERTEX_POINT('',#1010);
#322=VERTEX_POINT('',#1014);
#323=VERTEX_POINT('',#1016);
#324=VERTEX_POINT('',#1020);
#325=VERTEX_POINT('',#1022);
#326=VERTEX_POINT('',#1045);
#327=VERTEX_POINT('',#1046);
#328=VERTEX_POINT('',#1054);
#329=VERTEX_POINT('',#1059);
#330=VERTEX_POINT('',#1072);
#331=VERTEX_POINT('',#1080);
#332=VERTEX_POINT('',#1085);
#333=VERTEX_POINT('',#1087);
#334=VERTEX_POINT('',#1089);
#335=VERTEX_POINT('',#1091);
#336=VERTEX_POINT('',#1093);
#337=VERTEX_POINT('',#1107);
#338=VERTEX_POINT('',#1115);
#339=VERTEX_POINT('',#1117);
#340=VERTEX_POINT('',#1152);
#341=VERTEX_POINT('',#1162);
#342=VERTEX_POINT('',#1164);
#343=VERTEX_POINT('',#1168);
#344=VERTEX_POINT('',#1170);
#345=VERTEX_POINT('',#1172);
#346=VERTEX_POINT('',#1176);
#347=VERTEX_POINT('',#1177);
#348=VERTEX_POINT('',#1179);
#349=VERTEX_POINT('',#1181);
#350=VERTEX_POINT('',#1183);
#351=VERTEX_POINT('',#1187);
#352=VERTEX_POINT('',#1192);
#353=VERTEX_POINT('',#1196);
#354=VERTEX_POINT('',#1203);
#355=VERTEX_POINT('',#1210);
#356=VERTEX_POINT('',#1212);
#357=VERTEX_POINT('',#1215);
#358=VERTEX_POINT('',#1223);
#359=VERTEX_POINT('',#1237);
#360=VERTEX_POINT('',#1239);
#361=VERTEX_POINT('',#1241);
#362=VERTEX_POINT('',#1243);
#363=VERTEX_POINT('',#1249);
#364=VERTEX_POINT('',#1251);
#365=VERTEX_POINT('',#1253);
#366=VERTEX_POINT('',#1255);
#367=VERTEX_POINT('',#1258);
#368=VERTEX_POINT('',#1262);
#369=VERTEX_POINT('',#1266);
#370=VERTEX_POINT('',#1270);
#371=VERTEX_POINT('',#1278);
#372=VERTEX_POINT('',#1280);
#373=EDGE_CURVE('',#308,#308,#288,.T.);
#374=EDGE_CURVE('',#308,#309,#174,.T.);
#375=EDGE_CURVE('',#309,#309,#289,.T.);
#376=EDGE_CURVE('',#310,#310,#290,.T.);
#377=EDGE_CURVE('',#310,#311,#175,.T.);
#378=EDGE_CURVE('',#311,#311,#291,.T.);
#379=EDGE_CURVE('',#312,#313,#176,.T.);
#380=EDGE_CURVE('',#314,#312,#177,.T.);
#381=EDGE_CURVE('',#315,#314,#178,.T.);
#382=EDGE_CURVE('',#313,#315,#179,.T.);
#383=EDGE_CURVE('',#312,#316,#36,.T.);
#384=EDGE_CURVE('',#316,#317,#180,.T.);
#385=EDGE_CURVE('',#314,#317,#181,.T.);
#386=EDGE_CURVE('',#318,#318,#292,.T.);
#387=EDGE_CURVE('',#318,#319,#182,.T.);
#388=EDGE_CURVE('',#319,#319,#293,.F.);
#389=EDGE_CURVE('',#320,#320,#294,.T.);
#390=EDGE_CURVE('',#320,#321,#183,.T.);
#391=EDGE_CURVE('',#321,#321,#295,.F.);
#392=EDGE_CURVE('',#322,#322,#296,.T.);
#393=EDGE_CURVE('',#322,#323,#184,.T.);
#394=EDGE_CURVE('',#323,#323,#297,.F.);
#395=EDGE_CURVE('',#324,#324,#298,.T.);
#396=EDGE_CURVE('',#324,#325,#185,.T.);
#397=EDGE_CURVE('',#325,#325,#299,.F.);
#398=EDGE_CURVE('',#326,#327,#15,.T.);
#399=EDGE_CURVE('',#327,#328,#16,.T.);
#400=EDGE_CURVE('',#328,#329,#17,.T.);
#401=EDGE_CURVE('',#329,#326,#18,.T.);
#402=EDGE_CURVE('',#328,#330,#19,.T.);
#403=EDGE_CURVE('',#330,#331,#20,.T.);
#404=EDGE_CURVE('',#331,#332,#186,.T.);
#405=EDGE_CURVE('',#332,#333,#187,.T.);
#406=EDGE_CURVE('',#333,#334,#188,.T.);
#407=EDGE_CURVE('',#334,#335,#189,.T.);
#408=EDGE_CURVE('',#335,#336,#21,.T.);
#409=EDGE_CURVE('',#336,#337,#22,.T.);
#410=EDGE_CURVE('',#338,#337,#190,.T.);
#411=EDGE_CURVE('',#338,#339,#191,.T.);
#412=EDGE_CURVE('',#339,#329,#192,.T.);
#413=EDGE_CURVE('',#340,#327,#23,.F.);
#414=EDGE_CURVE('',#340,#330,#193,.T.);
#415=EDGE_CURVE('',#312,#341,#194,.T.);
#416=EDGE_CURVE('',#342,#341,#37,.F.);
#417=EDGE_CURVE('',#342,#316,#195,.T.);
#418=EDGE_CURVE('',#342,#343,#196,.T.);
#419=EDGE_CURVE('',#343,#344,#197,.F.);
#420=EDGE_CURVE('',#345,#344,#198,.T.);
#421=EDGE_CURVE('',#317,#345,#199,.T.);
#422=EDGE_CURVE('',#346,#347,#38,.F.);
#423=EDGE_CURVE('',#346,#348,#200,.T.);
#424=EDGE_CURVE('',#348,#349,#39,.T.);
#425=EDGE_CURVE('',#349,#350,#201,.T.);
#426=EDGE_CURVE('',#350,#347,#40,.T.);
#427=EDGE_CURVE('',#351,#349,#24,.F.);
#428=EDGE_CURVE('',#352,#351,#202,.T.);
#429=EDGE_CURVE('',#352,#350,#203,.F.);
#430=EDGE_CURVE('',#353,#343,#204,.F.);
#431=EDGE_CURVE('',#344,#353,#25,.T.);
#432=EDGE_CURVE('',#354,#339,#205,.T.);
#433=EDGE_CURVE('',#326,#354,#206,.T.);
#434=EDGE_CURVE('',#354,#352,#207,.T.);
#435=EDGE_CURVE('',#347,#338,#208,.T.);
#436=EDGE_CURVE('',#351,#355,#209,.F.);
#437=EDGE_CURVE('',#356,#355,#210,.T.);
#438=EDGE_CURVE('',#356,#315,#211,.T.);
#439=EDGE_CURVE('',#345,#357,#26,.F.);
#440=EDGE_CURVE('',#357,#358,#27,.F.);
#441=EDGE_CURVE('',#358,#359,#212,.F.);
#442=EDGE_CURVE('',#360,#359,#213,.T.);
#443=EDGE_CURVE('',#361,#360,#214,.T.);
#444=EDGE_CURVE('',#362,#361,#215,.T.);
#445=EDGE_CURVE('',#362,#340,#28,.F.);
#446=EDGE_CURVE('',#363,#363,#300,.T.);
#447=EDGE_CURVE('',#364,#364,#301,.T.);
#448=EDGE_CURVE('',#365,#365,#302,.T.);
#449=EDGE_CURVE('',#366,#366,#303,.T.);
#450=EDGE_CURVE('',#367,#367,#304,.F.);
#451=EDGE_CURVE('',#367,#366,#216,.T.);
#452=EDGE_CURVE('',#368,#368,#305,.F.);
#453=EDGE_CURVE('',#368,#365,#217,.T.);
#454=EDGE_CURVE('',#369,#369,#306,.F.);
#455=EDGE_CURVE('',#369,#364,#218,.T.);
#456=EDGE_CURVE('',#370,#370,#307,.F.);
#457=EDGE_CURVE('',#370,#363,#219,.T.);
#458=EDGE_CURVE('',#371,#313,#220,.T.);
#459=EDGE_CURVE('',#371,#372,#221,.T.);
#460=EDGE_CURVE('',#372,#348,#222,.T.);
#461=EDGE_CURVE('',#346,#341,#223,.T.);
#462=EDGE_CURVE('',#353,#337,#29,.F.);
#463=EDGE_CURVE('',#356,#371,#30,.T.);
#464=EDGE_CURVE('',#355,#372,#224,.T.);
#465=EDGE_CURVE('',#362,#331,#225,.T.);
#466=EDGE_CURVE('',#357,#336,#226,.T.);
#467=EDGE_CURVE('',#358,#335,#227,.T.);
#468=EDGE_CURVE('',#359,#334,#228,.T.);
#469=EDGE_CURVE('',#360,#333,#229,.T.);
#470=EDGE_CURVE('',#361,#332,#230,.T.);
#471=ORIENTED_EDGE('',*,*,#373,.F.);
#472=ORIENTED_EDGE('',*,*,#374,.T.);
#473=ORIENTED_EDGE('',*,*,#375,.T.);
#474=ORIENTED_EDGE('',*,*,#374,.F.);
#475=ORIENTED_EDGE('',*,*,#375,.F.);
#476=ORIENTED_EDGE('',*,*,#376,.F.);
#477=ORIENTED_EDGE('',*,*,#376,.T.);
#478=ORIENTED_EDGE('',*,*,#377,.T.);
#479=ORIENTED_EDGE('',*,*,#378,.F.);
#480=ORIENTED_EDGE('',*,*,#377,.F.);
#481=ORIENTED_EDGE('',*,*,#379,.F.);
#482=ORIENTED_EDGE('',*,*,#380,.F.);
#483=ORIENTED_EDGE('',*,*,#381,.F.);
#484=ORIENTED_EDGE('',*,*,#382,.F.);
#485=ORIENTED_EDGE('',*,*,#380,.T.);
#486=ORIENTED_EDGE('',*,*,#383,.T.);
#487=ORIENTED_EDGE('',*,*,#384,.T.);
#488=ORIENTED_EDGE('',*,*,#385,.F.);
#489=ORIENTED_EDGE('',*,*,#386,.F.);
#490=ORIENTED_EDGE('',*,*,#387,.T.);
#491=ORIENTED_EDGE('',*,*,#388,.T.);
#492=ORIENTED_EDGE('',*,*,#387,.F.);
#493=ORIENTED_EDGE('',*,*,#389,.F.);
#494=ORIENTED_EDGE('',*,*,#390,.T.);
#495=ORIENTED_EDGE('',*,*,#391,.T.);
#496=ORIENTED_EDGE('',*,*,#390,.F.);
#497=ORIENTED_EDGE('',*,*,#392,.F.);
#498=ORIENTED_EDGE('',*,*,#393,.T.);
#499=ORIENTED_EDGE('',*,*,#394,.T.);
#500=ORIENTED_EDGE('',*,*,#393,.F.);
#501=ORIENTED_EDGE('',*,*,#395,.F.);
#502=ORIENTED_EDGE('',*,*,#396,.T.);
#503=ORIENTED_EDGE('',*,*,#397,.T.);
#504=ORIENTED_EDGE('',*,*,#396,.F.);
#505=ORIENTED_EDGE('',*,*,#398,.T.);
#506=ORIENTED_EDGE('',*,*,#399,.T.);
#507=ORIENTED_EDGE('',*,*,#400,.T.);
#508=ORIENTED_EDGE('',*,*,#401,.T.);
#509=ORIENTED_EDGE('',*,*,#400,.F.);
#510=ORIENTED_EDGE('',*,*,#402,.T.);
#511=ORIENTED_EDGE('',*,*,#403,.T.);
#512=ORIENTED_EDGE('',*,*,#404,.T.);
#513=ORIENTED_EDGE('',*,*,#405,.T.);
#514=ORIENTED_EDGE('',*,*,#406,.T.);
#515=ORIENTED_EDGE('',*,*,#407,.T.);
#516=ORIENTED_EDGE('',*,*,#408,.T.);
#517=ORIENTED_EDGE('',*,*,#409,.T.);
#518=ORIENTED_EDGE('',*,*,#410,.F.);
#519=ORIENTED_EDGE('',*,*,#411,.T.);
#520=ORIENTED_EDGE('',*,*,#412,.T.);
#521=ORIENTED_EDGE('',*,*,#373,.T.);
#522=ORIENTED_EDGE('',*,*,#386,.T.);
#523=ORIENTED_EDGE('',*,*,#389,.T.);
#524=ORIENTED_EDGE('',*,*,#392,.T.);
#525=ORIENTED_EDGE('',*,*,#395,.T.);
#526=ORIENTED_EDGE('',*,*,#399,.F.);
#527=ORIENTED_EDGE('',*,*,#413,.F.);
#528=ORIENTED_EDGE('',*,*,#414,.T.);
#529=ORIENTED_EDGE('',*,*,#402,.F.);
#530=ORIENTED_EDGE('',*,*,#383,.F.);
#531=ORIENTED_EDGE('',*,*,#415,.T.);
#532=ORIENTED_EDGE('',*,*,#416,.F.);
#533=ORIENTED_EDGE('',*,*,#417,.T.);
#534=ORIENTED_EDGE('',*,*,#417,.F.);
#535=ORIENTED_EDGE('',*,*,#418,.T.);
#536=ORIENTED_EDGE('',*,*,#419,.T.);
#537=ORIENTED_EDGE('',*,*,#420,.F.);
#538=ORIENTED_EDGE('',*,*,#421,.F.);
#539=ORIENTED_EDGE('',*,*,#384,.F.);
#540=ORIENTED_EDGE('',*,*,#422,.F.);
#541=ORIENTED_EDGE('',*,*,#423,.T.);
#542=ORIENTED_EDGE('',*,*,#424,.T.);
#543=ORIENTED_EDGE('',*,*,#425,.T.);
#544=ORIENTED_EDGE('',*,*,#426,.T.);
#545=ORIENTED_EDGE('',*,*,#425,.F.);
#546=ORIENTED_EDGE('',*,*,#427,.F.);
#547=ORIENTED_EDGE('',*,*,#428,.F.);
#548=ORIENTED_EDGE('',*,*,#429,.T.);
#549=ORIENTED_EDGE('',*,*,#430,.F.);
#550=ORIENTED_EDGE('',*,*,#431,.F.);
#551=ORIENTED_EDGE('',*,*,#419,.F.);
#552=ORIENTED_EDGE('',*,*,#401,.F.);
#553=ORIENTED_EDGE('',*,*,#412,.F.);
#554=ORIENTED_EDGE('',*,*,#432,.F.);
#555=ORIENTED_EDGE('',*,*,#433,.F.);
#556=ORIENTED_EDGE('',*,*,#434,.F.);
#557=ORIENTED_EDGE('',*,*,#432,.T.);
#558=ORIENTED_EDGE('',*,*,#411,.F.);
#559=ORIENTED_EDGE('',*,*,#435,.F.);
#560=ORIENTED_EDGE('',*,*,#426,.F.);
#561=ORIENTED_EDGE('',*,*,#429,.F.);
#562=ORIENTED_EDGE('',*,*,#398,.F.);
#563=ORIENTED_EDGE('',*,*,#433,.T.);
#564=ORIENTED_EDGE('',*,*,#434,.T.);
#565=ORIENTED_EDGE('',*,*,#428,.T.);
#566=ORIENTED_EDGE('',*,*,#436,.T.);
#567=ORIENTED_EDGE('',*,*,#437,.F.);
#568=ORIENTED_EDGE('',*,*,#438,.T.);
#569=ORIENTED_EDGE('',*,*,#381,.T.);
#570=ORIENTED_EDGE('',*,*,#385,.T.);
#571=ORIENTED_EDGE('',*,*,#421,.T.);
#572=ORIENTED_EDGE('',*,*,#439,.T.);
#573=ORIENTED_EDGE('',*,*,#440,.T.);
#574=ORIENTED_EDGE('',*,*,#441,.T.);
#575=ORIENTED_EDGE('',*,*,#442,.F.);
#576=ORIENTED_EDGE('',*,*,#443,.F.);
#577=ORIENTED_EDGE('',*,*,#444,.F.);
#578=ORIENTED_EDGE('',*,*,#445,.T.);
#579=ORIENTED_EDGE('',*,*,#413,.T.);
#580=ORIENTED_EDGE('',*,*,#378,.T.);
#581=ORIENTED_EDGE('',*,*,#446,.T.);
#582=ORIENTED_EDGE('',*,*,#447,.T.);
#583=ORIENTED_EDGE('',*,*,#448,.T.);
#584=ORIENTED_EDGE('',*,*,#449,.T.);
#585=ORIENTED_EDGE('',*,*,#450,.F.);
#586=ORIENTED_EDGE('',*,*,#451,.T.);
#587=ORIENTED_EDGE('',*,*,#449,.F.);
#588=ORIENTED_EDGE('',*,*,#451,.F.);
#589=ORIENTED_EDGE('',*,*,#452,.F.);
#590=ORIENTED_EDGE('',*,*,#453,.T.);
#591=ORIENTED_EDGE('',*,*,#448,.F.);
#592=ORIENTED_EDGE('',*,*,#453,.F.);
#593=ORIENTED_EDGE('',*,*,#454,.F.);
#594=ORIENTED_EDGE('',*,*,#455,.T.);
#595=ORIENTED_EDGE('',*,*,#447,.F.);
#596=ORIENTED_EDGE('',*,*,#455,.F.);
#597=ORIENTED_EDGE('',*,*,#456,.F.);
#598=ORIENTED_EDGE('',*,*,#457,.T.);
#599=ORIENTED_EDGE('',*,*,#446,.F.);
#600=ORIENTED_EDGE('',*,*,#457,.F.);
#601=ORIENTED_EDGE('',*,*,#391,.F.);
#602=ORIENTED_EDGE('',*,*,#452,.T.);
#603=ORIENTED_EDGE('',*,*,#397,.F.);
#604=ORIENTED_EDGE('',*,*,#456,.T.);
#605=ORIENTED_EDGE('',*,*,#388,.F.);
#606=ORIENTED_EDGE('',*,*,#450,.T.);
#607=ORIENTED_EDGE('',*,*,#394,.F.);
#608=ORIENTED_EDGE('',*,*,#454,.T.);
#609=ORIENTED_EDGE('',*,*,#379,.T.);
#610=ORIENTED_EDGE('',*,*,#458,.F.);
#611=ORIENTED_EDGE('',*,*,#459,.T.);
#612=ORIENTED_EDGE('',*,*,#460,.T.);
#613=ORIENTED_EDGE('',*,*,#423,.F.);
#614=ORIENTED_EDGE('',*,*,#461,.T.);
#615=ORIENTED_EDGE('',*,*,#415,.F.);
#616=ORIENTED_EDGE('',*,*,#410,.T.);
#617=ORIENTED_EDGE('',*,*,#462,.F.);
#618=ORIENTED_EDGE('',*,*,#430,.T.);
#619=ORIENTED_EDGE('',*,*,#418,.F.);
#620=ORIENTED_EDGE('',*,*,#416,.T.);
#621=ORIENTED_EDGE('',*,*,#461,.F.);
#622=ORIENTED_EDGE('',*,*,#422,.T.);
#623=ORIENTED_EDGE('',*,*,#435,.T.);
#624=ORIENTED_EDGE('',*,*,#382,.T.);
#625=ORIENTED_EDGE('',*,*,#438,.F.);
#626=ORIENTED_EDGE('',*,*,#463,.T.);
#627=ORIENTED_EDGE('',*,*,#458,.T.);
#628=ORIENTED_EDGE('',*,*,#436,.F.);
#629=ORIENTED_EDGE('',*,*,#427,.T.);
#630=ORIENTED_EDGE('',*,*,#424,.F.);
#631=ORIENTED_EDGE('',*,*,#460,.F.);
#632=ORIENTED_EDGE('',*,*,#464,.F.);
#633=ORIENTED_EDGE('',*,*,#437,.T.);
#634=ORIENTED_EDGE('',*,*,#464,.T.);
#635=ORIENTED_EDGE('',*,*,#459,.F.);
#636=ORIENTED_EDGE('',*,*,#463,.F.);
#637=ORIENTED_EDGE('',*,*,#445,.F.);
#638=ORIENTED_EDGE('',*,*,#465,.T.);
#639=ORIENTED_EDGE('',*,*,#403,.F.);
#640=ORIENTED_EDGE('',*,*,#414,.F.);
#641=ORIENTED_EDGE('',*,*,#439,.F.);
#642=ORIENTED_EDGE('',*,*,#420,.T.);
#643=ORIENTED_EDGE('',*,*,#431,.T.);
#644=ORIENTED_EDGE('',*,*,#462,.T.);
#645=ORIENTED_EDGE('',*,*,#409,.F.);
#646=ORIENTED_EDGE('',*,*,#466,.F.);
#647=ORIENTED_EDGE('',*,*,#440,.F.);
#648=ORIENTED_EDGE('',*,*,#466,.T.);
#649=ORIENTED_EDGE('',*,*,#408,.F.);
#650=ORIENTED_EDGE('',*,*,#467,.F.);
#651=ORIENTED_EDGE('',*,*,#441,.F.);
#652=ORIENTED_EDGE('',*,*,#467,.T.);
#653=ORIENTED_EDGE('',*,*,#407,.F.);
#654=ORIENTED_EDGE('',*,*,#468,.F.);
#655=ORIENTED_EDGE('',*,*,#442,.T.);
#656=ORIENTED_EDGE('',*,*,#468,.T.);
#657=ORIENTED_EDGE('',*,*,#406,.F.);
#658=ORIENTED_EDGE('',*,*,#469,.F.);
#659=ORIENTED_EDGE('',*,*,#443,.T.);
#660=ORIENTED_EDGE('',*,*,#469,.T.);
#661=ORIENTED_EDGE('',*,*,#405,.F.);
#662=ORIENTED_EDGE('',*,*,#470,.F.);
#663=ORIENTED_EDGE('',*,*,#444,.T.);
#664=ORIENTED_EDGE('',*,*,#470,.T.);
#665=ORIENTED_EDGE('',*,*,#404,.F.);
#666=ORIENTED_EDGE('',*,*,#465,.F.);
#667=CYLINDRICAL_SURFACE('',#733,3.);
#668=CYLINDRICAL_SURFACE('',#738,1.625);
#669=CYLINDRICAL_SURFACE('',#743,3.);
#670=CYLINDRICAL_SURFACE('',#746,3.);
#671=CYLINDRICAL_SURFACE('',#749,3.);
#672=CYLINDRICAL_SURFACE('',#752,3.);
#673=CYLINDRICAL_SURFACE('',#756,1.5);
#674=CYLINDRICAL_SURFACE('',#759,1.5);
#675=CYLINDRICAL_SURFACE('',#772,1.625);
#676=CYLINDRICAL_SURFACE('',#774,1.625);
#677=CYLINDRICAL_SURFACE('',#776,1.625);
#678=CYLINDRICAL_SURFACE('',#778,1.62500000000001);
#679=ADVANCED_FACE('',(#79),#667,.F.);
#680=ADVANCED_FACE('',(#80,#41),#56,.T.);
#681=ADVANCED_FACE('',(#81),#668,.F.);
#682=ADVANCED_FACE('',(#82),#57,.T.);
#683=ADVANCED_FACE('',(#83),#58,.F.);
#684=ADVANCED_FACE('',(#84),#669,.F.);
#685=ADVANCED_FACE('',(#85),#670,.F.);
#686=ADVANCED_FACE('',(#86),#671,.F.);
#687=ADVANCED_FACE('',(#87),#672,.F.);
#688=ADVANCED_FACE('',(#88),#31,.F.);
#689=ADVANCED_FACE('',(#89,#42,#43,#44,#45,#46),#59,.T.);
#690=ADVANCED_FACE('',(#90),#32,.T.);
#691=ADVANCED_FACE('',(#91),#673,.F.);
#692=ADVANCED_FACE('',(#92),#60,.F.);
#693=ADVANCED_FACE('',(#93),#674,.F.);
#694=ADVANCED_FACE('',(#94),#61,.F.);
#695=ADVANCED_FACE('',(#95),#62,.T.);
#696=ADVANCED_FACE('',(#96),#63,.F.);
#697=ADVANCED_FACE('',(#97),#64,.F.);
#698=ADVANCED_FACE('',(#98,#47,#48,#49,#50,#51),#65,.F.);
#699=ADVANCED_FACE('',(#99),#675,.F.);
#700=ADVANCED_FACE('',(#100),#676,.F.);
#701=ADVANCED_FACE('',(#101),#677,.F.);
#702=ADVANCED_FACE('',(#102),#678,.F.);
#703=ADVANCED_FACE('',(#103,#52),#66,.T.);
#704=ADVANCED_FACE('',(#104,#53),#67,.T.);
#705=ADVANCED_FACE('',(#105,#54),#68,.T.);
#706=ADVANCED_FACE('',(#106,#55),#69,.T.);
#707=ADVANCED_FACE('',(#107),#70,.F.);
#708=ADVANCED_FACE('',(#108),#71,.T.);
#709=ADVANCED_FACE('',(#109),#72,.F.);
#710=ADVANCED_FACE('',(#110),#73,.T.);
#711=ADVANCED_FACE('',(#111),#74,.T.);
#712=ADVANCED_FACE('',(#112),#33,.T.);
#713=ADVANCED_FACE('',(#113),#34,.T.);
#714=ADVANCED_FACE('',(#114),#35,.T.);
#715=ADVANCED_FACE('',(#115),#75,.T.);
#716=ADVANCED_FACE('',(#116),#76,.T.);
#717=ADVANCED_FACE('',(#117),#77,.T.);
#718=ADVANCED_FACE('',(#118),#78,.T.);
#719=CLOSED_SHELL('',(#679,#680,#681,#682,#683,#684,#685,#686,#687,#688,
#689,#690,#691,#692,#693,#694,#695,#696,#697,#698,#699,#700,#701,#702,#703,
#704,#705,#706,#707,#708,#709,#710,#711,#712,#713,#714,#715,#716,#717,#718));
#720=DERIVED_UNIT_ELEMENT(#722,1.);
#721=DERIVED_UNIT_ELEMENT(#1364,-3.);
#722=(
MASS_UNIT()
NAMED_UNIT(*)
SI_UNIT(.KILO.,.GRAM.)
);
#723=DERIVED_UNIT((#720,#721));
#724=MEASURE_REPRESENTATION_ITEM('density measure',
POSITIVE_RATIO_MEASURE(7850.),#723);
#725=PROPERTY_DEFINITION_REPRESENTATION(#730,#727);
#726=PROPERTY_DEFINITION_REPRESENTATION(#731,#728);
#727=REPRESENTATION('material name',(#729),#1361);
#728=REPRESENTATION('density',(#724),#1361);
#729=DESCRIPTIVE_REPRESENTATION_ITEM('Steel','Steel');
#730=PROPERTY_DEFINITION('material property','material name',#1371);
#731=PROPERTY_DEFINITION('material property','density of part',#1371);
#732=AXIS2_PLACEMENT_3D('',#972,#793,#794);
#733=AXIS2_PLACEMENT_3D('',#973,#795,#796);
#734=AXIS2_PLACEMENT_3D('',#975,#797,#798);
#735=AXIS2_PLACEMENT_3D('',#978,#800,#801);
#736=AXIS2_PLACEMENT_3D('',#979,#802,#803);
#737=AXIS2_PLACEMENT_3D('',#981,#804,#805);
#738=AXIS2_PLACEMENT_3D('',#982,#806,#807);
#739=AXIS2_PLACEMENT_3D('',#985,#809,#810);
#740=AXIS2_PLACEMENT_3D('',#986,#811,#812);
#741=AXIS2_PLACEMENT_3D('',#995,#817,#818);
#742=AXIS2_PLACEMENT_3D('',#997,#819,#820);
#743=AXIS2_PLACEMENT_3D('',#1001,#823,#824);
#744=AXIS2_PLACEMENT_3D('',#1003,#825,#826);
#745=AXIS2_PLACEMENT_3D('',#1006,#828,#829);
#746=AXIS2_PLACEMENT_3D('',#1007,#830,#831);
#747=AXIS2_PLACEMENT_3D('',#1009,#832,#833);
#748=AXIS2_PLACEMENT_3D('',#1012,#835,#836);
#749=AXIS2_PLACEMENT_3D('',#1013,#837,#838);
#750=AXIS2_PLACEMENT_3D('',#1015,#839,#840);
#751=AXIS2_PLACEMENT_3D('',#1018,#842,#843);
#752=AXIS2_PLACEMENT_3D('',#1019,#844,#845);
#753=AXIS2_PLACEMENT_3D('',#1021,#846,#847);
#754=AXIS2_PLACEMENT_3D('',#1024,#849,#850);
#755=AXIS2_PLACEMENT_3D('',#1071,#851,#852);
#756=AXIS2_PLACEMENT_3D('',#1161,#861,#862);
#757=AXIS2_PLACEMENT_3D('',#1165,#864,#865);
#758=AXIS2_PLACEMENT_3D('',#1167,#867,#868);
#759=AXIS2_PLACEMENT_3D('',#1175,#873,#874);
#760=AXIS2_PLACEMENT_3D('',#1178,#875,#876);
#761=AXIS2_PLACEMENT_3D('',#1182,#878,#879);
#762=AXIS2_PLACEMENT_3D('',#1185,#881,#882);
#763=AXIS2_PLACEMENT_3D('',#1186,#883,#884);
#764=AXIS2_PLACEMENT_3D('',#1195,#887,#888);
#765=AXIS2_PLACEMENT_3D('',#1202,#890,#891);
#766=AXIS2_PLACEMENT_3D('',#1206,#894,#895);
#767=AXIS2_PLACEMENT_3D('',#1209,#898,#899);
#768=AXIS2_PLACEMENT_3D('',#1250,#907,#908);
#769=AXIS2_PLACEMENT_3D('',#1252,#909,#910);
#770=AXIS2_PLACEMENT_3D('',#1254,#911,#912);
#771=AXIS2_PLACEMENT_3D('',#1256,#913,#914);
#772=AXIS2_PLACEMENT_3D('',#1257,#915,#916);
#773=AXIS2_PLACEMENT_3D('',#1259,#917,#918);
#774=AXIS2_PLACEMENT_3D('',#1261,#920,#921);
#775=AXIS2_PLACEMENT_3D('',#1263,#922,#923);
#776=AXIS2_PLACEMENT_3D('',#1265,#925,#926);
#777=AXIS2_PLACEMENT_3D('',#1267,#927,#928);
#778=AXIS2_PLACEMENT_3D('',#1269,#930,#931);
#779=AXIS2_PLACEMENT_3D('',#1271,#932,#933);
#780=AXIS2_PLACEMENT_3D('',#1273,#935,#936);
#781=AXIS2_PLACEMENT_3D('',#1274,#937,#938);
#782=AXIS2_PLACEMENT_3D('',#1275,#939,#940);
#783=AXIS2_PLACEMENT_3D('',#1276,#941,#942);
#784=AXIS2_PLACEMENT_3D('',#1277,#943,#944);
#785=AXIS2_PLACEMENT_3D('',#1284,#949,#950);
#786=AXIS2_PLACEMENT_3D('',#1289,#951,#952);
#787=AXIS2_PLACEMENT_3D('',#1296,#953,#954);
#788=AXIS2_PLACEMENT_3D('',#1298,#956,#957);
#789=AXIS2_PLACEMENT_3D('',#1352,#961,#962);
#790=AXIS2_PLACEMENT_3D('',#1354,#964,#965);
#791=AXIS2_PLACEMENT_3D('',#1356,#967,#968);
#792=AXIS2_PLACEMENT_3D('',#1358,#970,#971);
#793=DIRECTION('axis',(0.,0.,1.));
#794=DIRECTION('refdir',(1.,0.,0.));
#795=DIRECTION('center_axis',(0.,1.,0.));
#796=DIRECTION('ref_axis',(1.,0.,-2.77555756156289E-17));
#797=DIRECTION('center_axis',(5.55111512312578E-17,1.,-4.17302354436533E-25));
#798=DIRECTION('ref_axis',(1.,0.,-2.77555756156289E-17));
#799=DIRECTION('',(0.,1.,0.));
#800=DIRECTION('center_axis',(-1.15824670959074E-41,1.,-4.17302355977277E-25));
#801=DIRECTION('ref_axis',(1.,0.,-2.77555756156289E-17));
#802=DIRECTION('center_axis',(1.15824670959074E-41,-1.,4.17302355977277E-25));
#803=DIRECTION('ref_axis',(1.,0.,-2.77555756156289E-17));
#804=DIRECTION('center_axis',(1.15824670959074E-41,-1.,4.17302355977277E-25));
#805=DIRECTION('ref_axis',(1.,0.,-2.77555756156289E-17));
#806=DIRECTION('center_axis',(0.,1.,0.));
#807=DIRECTION('ref_axis',(1.,0.,-2.77555756156289E-17));
#808=DIRECTION('',(0.,1.,0.));
#809=DIRECTION('center_axis',(-5.55111512312578E-17,-1.,4.17302354436533E-25));
#810=DIRECTION('ref_axis',(1.,0.,-2.77555756156289E-17));
#811=DIRECTION('center_axis',(-0.699452614136751,0.,0.714678977287891));
#812=DIRECTION('ref_axis',(0.714678977287891,2.91883224956375E-25,0.699452614136751));
#813=DIRECTION('',(-0.714678977287891,5.7850439154849E-17,-0.699452614136751));
#814=DIRECTION('',(0.,-1.,0.));
#815=DIRECTION('',(0.714678977287891,2.91883224956375E-25,0.69945261413675));
#816=DIRECTION('',(0.,1.,0.));
#817=DIRECTION('center_axis',(1.,0.,8.70216801143794E-17));
#818=DIRECTION('ref_axis',(-8.70216801143794E-17,4.17302359641899E-25,1.));
#819=DIRECTION('center_axis',(-1.,0.,-8.70216801143794E-17));
#820=DIRECTION('ref_axis',(-4.87458403547354E-17,3.44685142694702E-17,1.));
#821=DIRECTION('',(0.,1.,0.));
#822=DIRECTION('',(-8.70216801143794E-17,4.17302359267207E-25,1.));
#823=DIRECTION('center_axis',(0.,1.,0.));
#824=DIRECTION('ref_axis',(1.,0.,-6.16297582203915E-33));
#825=DIRECTION('center_axis',(5.55111512312578E-17,1.,-4.17302354436533E-25));
#826=DIRECTION('ref_axis',(1.,0.,-6.16297582203915E-33));
#827=DIRECTION('',(0.,1.,0.));
#828=DIRECTION('center_axis',(-5.55111512312578E-17,-1.,-2.59885887870401E-17));
#829=DIRECTION('ref_axis',(1.,0.,-6.16297582203915E-33));
#830=DIRECTION('center_axis',(0.,1.,0.));
#831=DIRECTION('ref_axis',(1.,0.,-6.16297582203915E-33));
#832=DIRECTION('center_axis',(5.55111512312578E-17,1.,-4.17302354436533E-25));
#833=DIRECTION('ref_axis',(1.,0.,-6.16297582203915E-33));
#834=DIRECTION('',(0.,1.,0.));
#835=DIRECTION('center_axis',(-5.55111512312578E-17,-1.,-2.59885887870401E-17));
#836=DIRECTION('ref_axis',(1.,0.,-6.16297582203915E-33));
#837=DIRECTION('center_axis',(0.,1.,0.));
#838=DIRECTION('ref_axis',(1.,0.,-6.16297582203915E-33));
#839=DIRECTION('center_axis',(5.55111512312578E-17,1.,-4.17302354436533E-25));
#840=DIRECTION('ref_axis',(1.,0.,-6.16297582203915E-33));
#841=DIRECTION('',(0.,1.,0.));
#842=DIRECTION('center_axis',(-5.55111512312578E-17,-1.,-2.59885887870401E-17));
#843=DIRECTION('ref_axis',(1.,0.,-6.16297582203915E-33));
#844=DIRECTION('center_axis',(0.,1.,0.));
#845=DIRECTION('ref_axis',(1.,0.,-6.16297582203915E-33));
#846=DIRECTION('center_axis',(5.55111512312578E-17,1.,-4.17302354436533E-25));
#847=DIRECTION('ref_axis',(1.,0.,-6.16297582203915E-33));
#848=DIRECTION('',(0.,1.,0.));
#849=DIRECTION('center_axis',(-5.55111512312578E-17,-1.,-2.59885887870401E-17));
#850=DIRECTION('ref_axis',(1.,0.,-6.16297582203915E-33));
#851=DIRECTION('center_axis',(-5.55111512312578E-17,-1.,4.17302354436533E-25));
#852=DIRECTION('ref_axis',(1.,-5.55111512312578E-17,-2.77555756156289E-17));
#853=DIRECTION('',(1.,-5.55111512312578E-17,1.73008597111533E-19));
#854=DIRECTION('',(-8.70216801143794E-17,4.17302359641899E-25,1.));
#855=DIRECTION('',(3.84318351311186E-10,3.95968395801833E-25,1.));
#856=DIRECTION('',(-0.906307787036648,5.03101888046176E-17,0.422618261740704));
#857=DIRECTION('',(0.707106784919426,-3.92523113792334E-17,0.707106777453669));
#858=DIRECTION('',(-0.258819045102521,1.43673427511326E-17,-0.965925826289068));
#859=DIRECTION('',(-0.965925826289067,5.36196547293159E-17,0.258819045102526));
#860=DIRECTION('',(0.,-1.,0.));
#861=DIRECTION('center_axis',(-0.372557731248002,-3.43653618935557E-18,
0.928009017675659));
#862=DIRECTION('ref_axis',(0.656201469400726,-0.707106781186547,0.263438098148938));
#863=DIRECTION('',(-0.372557731248002,-3.43653618935557E-18,0.928009017675659));
#864=DIRECTION('center_axis',(-0.707106777453669,0.,0.707106784919426));
#865=DIRECTION('ref_axis',(0.707106784919426,8.50837520459941E-17,0.707106777453669));
#866=DIRECTION('',(0.372557731248002,3.43653618935557E-18,-0.928009017675659));
#867=DIRECTION('center_axis',(0.928009017675659,0.,0.372557731248002));
#868=DIRECTION('ref_axis',(0.372557731248002,3.43653618935555E-18,-0.928009017675659));
#869=DIRECTION('',(0.,-1.,0.));
#870=DIRECTION('',(0.372557731248002,3.43653618935557E-18,-0.928009017675659));
#871=DIRECTION('',(0.,-1.,0.));
#872=DIRECTION('',(-0.372557731248002,2.06811089489425E-17,0.928009017675659));
#873=DIRECTION('center_axis',(0.829776874895504,-3.15577609400578E-17,-0.558095276712365));
#874=DIRECTION('ref_axis',(-0.394632954711499,-0.707106781186546,-0.586740855110392));
#875=DIRECTION('center_axis',(-0.707106777453669,0.,0.707106784919426));
#876=DIRECTION('ref_axis',(-0.707106784919426,2.08829228007966E-15,-0.707106777453669));
#877=DIRECTION('',(0.829776874895504,-3.15577609400578E-17,-0.558095276712365));
#878=DIRECTION('center_axis',(0.928009017675659,0.,0.372557731248002));
#879=DIRECTION('ref_axis',(0.372557731248002,5.2006335575928E-17,-0.928009017675659));
#880=DIRECTION('',(-0.829776874895504,3.15577609400578E-17,0.558095276712365));
#881=DIRECTION('center_axis',(-0.965925826289068,0.,0.258819045102521));
#882=DIRECTION('ref_axis',(-0.258819045102521,1.48780304760775E-15,-0.965925826289068));
#883=DIRECTION('center_axis',(-0.558095276712365,0.,-0.829776874895504));
#884=DIRECTION('ref_axis',(-0.829776874895504,3.15577609400578E-17,0.558095276712365));
#885=DIRECTION('',(0.829776874895504,-4.60618698234193E-17,-0.558095276712365));
#886=DIRECTION('',(0.,1.,0.));
#887=DIRECTION('center_axis',(-5.55111512312578E-17,-1.,-2.59885887870401E-17));
#888=DIRECTION('ref_axis',(0.,2.59885887870401E-17,-1.));
#889=DIRECTION('',(0.707106784919426,-5.76290189420832E-17,0.707106777453669));
#890=DIRECTION('center_axis',(-0.258819045102526,0.,-0.965925826289067));
#891=DIRECTION('ref_axis',(0.965925826289067,5.85500785684629E-17,-0.258819045102526));
#892=DIRECTION('',(0.,-1.,0.));
#893=DIRECTION('',(0.965925826289067,-5.36196547293159E-17,-0.258819045102526));
#894=DIRECTION('center_axis',(0.965925826289068,0.,-0.258819045102521));
#895=DIRECTION('ref_axis',(0.258819045102521,-4.0332495194121E-18,0.965925826289068));
#896=DIRECTION('',(0.258819045102521,-1.43673427511326E-17,0.965925826289068));
#897=DIRECTION('',(0.,-1.,0.));
#898=DIRECTION('center_axis',(-5.55111512312578E-17,-1.,4.17302354436533E-25));
#899=DIRECTION('ref_axis',(1.,-5.55111512312578E-17,-2.77555756156289E-17));
#900=DIRECTION('',(-0.372557731248002,2.06811089489425E-17,0.928009017675659));
#901=DIRECTION('',(0.666123953174862,-3.69773071922119E-17,0.74584105478761));
#902=DIRECTION('',(1.,-5.55111512312578E-17,1.73008597111533E-19));
#903=DIRECTION('',(-0.906307787036648,5.03101888046176E-17,0.422618261740704));
#904=DIRECTION('',(3.84318351311186E-10,3.95968400315951E-25,1.));
#905=DIRECTION('',(-8.70216801143794E-17,4.17302359267207E-25,1.));
#906=DIRECTION('',(1.,-5.55111512312578E-17,1.73008597111533E-19));
#907=DIRECTION('center_axis',(-5.55111512312578E-17,-1.,4.17302354436533E-25));
#908=DIRECTION('ref_axis',(1.,0.,0.));
#909=DIRECTION('center_axis',(-5.55111512312578E-17,-1.,4.17302354436533E-25));
#910=DIRECTION('ref_axis',(1.,0.,0.));
#911=DIRECTION('center_axis',(-5.55111512312578E-17,-1.,4.17302354436533E-25));
#912=DIRECTION('ref_axis',(1.,0.,0.));
#913=DIRECTION('center_axis',(-5.55111512312578E-17,-1.,4.17302354436533E-25));
#914=DIRECTION('ref_axis',(1.,0.,0.));
#915=DIRECTION('center_axis',(0.,1.,0.));
#916=DIRECTION('ref_axis',(1.,0.,0.));
#917=DIRECTION('center_axis',(-5.55111512312578E-17,-1.,-2.59885887870401E-17));
#918=DIRECTION('ref_axis',(1.,0.,0.));
#919=DIRECTION('',(0.,1.,0.));
#920=DIRECTION('center_axis',(0.,1.,0.));
#921=DIRECTION('ref_axis',(1.,0.,0.));
#922=DIRECTION('center_axis',(-5.55111512312578E-17,-1.,-2.59885887870401E-17));
#923=DIRECTION('ref_axis',(1.,0.,0.));
#924=DIRECTION('',(0.,1.,0.));
#925=DIRECTION('center_axis',(0.,1.,0.));
#926=DIRECTION('ref_axis',(1.,0.,0.));
#927=DIRECTION('center_axis',(-5.55111512312578E-17,-1.,-2.59885887870401E-17));
#928=DIRECTION('ref_axis',(1.,0.,0.));
#929=DIRECTION('',(0.,1.,0.));
#930=DIRECTION('center_axis',(0.,1.,0.));
#931=DIRECTION('ref_axis',(1.,0.,0.));
#932=DIRECTION('center_axis',(-5.55111512312578E-17,-1.,-2.59885887870401E-17));
#933=DIRECTION('ref_axis',(1.,0.,0.));
#934=DIRECTION('',(0.,1.,0.));
#935=DIRECTION('center_axis',(-5.55111512312578E-17,-1.,-2.59885887870401E-17));
#936=DIRECTION('ref_axis',(1.,-5.55111512312578E-17,0.));
#937=DIRECTION('center_axis',(-5.55111512312578E-17,-1.,-2.59885887870401E-17));
#938=DIRECTION('ref_axis',(1.,-5.55111512312578E-17,0.));
#939=DIRECTION('center_axis',(-5.55111512312578E-17,-1.,-2.59885887870401E-17));
#940=DIRECTION('ref_axis',(1.,-5.55111512312578E-17,0.));
#941=DIRECTION('center_axis',(-5.55111512312578E-17,-1.,-2.59885887870401E-17));
#942=DIRECTION('ref_axis',(1.,-5.55111512312578E-17,0.));
#943=DIRECTION('center_axis',(-5.55111512312578E-17,-1.,-2.59885887870401E-17));
#944=DIRECTION('ref_axis',(0.,2.59885887870401E-17,-1.));
#945=DIRECTION('',(1.,-5.55111512312578E-17,1.73008597111533E-19));
#946=DIRECTION('',(0.666123953174862,-4.95546311082951E-17,0.74584105478761));
#947=DIRECTION('',(-0.372557731248002,-2.77905717492459E-20,0.928009017675659));
#948=DIRECTION('',(0.707106784919426,-5.76290189420832E-17,0.707106777453669));
#949=DIRECTION('center_axis',(-0.707106777453669,0.,0.707106784919426));
#950=DIRECTION('ref_axis',(-0.707106784919426,5.76290189420832E-17,-0.707106777453669));
#951=DIRECTION('center_axis',(1.73008597111533E-19,0.,-1.));
#952=DIRECTION('ref_axis',(1.,-5.55111512312578E-17,1.73008597111533E-19));
#953=DIRECTION('center_axis',(0.928009017675659,0.,0.372557731248002));
#954=DIRECTION('ref_axis',(-0.372557731248002,-2.77905717492459E-20,0.928009017675659));
#955=DIRECTION('',(0.,-1.,0.));
#956=DIRECTION('center_axis',(0.74584105478761,0.,-0.666123953174862));
#957=DIRECTION('ref_axis',(0.666123953174862,-4.95546311082951E-17,0.74584105478761));
#958=DIRECTION('',(0.,-1.,0.));
#959=DIRECTION('',(0.,-1.,0.));
#960=DIRECTION('',(0.,-1.,0.));
#961=DIRECTION('center_axis',(0.422618261740704,0.,0.906307787036648));
#962=DIRECTION('ref_axis',(-0.906307787036648,5.03101888046176E-17,0.422618261740704));
#963=DIRECTION('',(0.,-1.,0.));
#964=DIRECTION('center_axis',(1.,0.,-3.84318351311186E-10));
#965=DIRECTION('ref_axis',(3.84318351311186E-10,3.95968395801833E-25,1.));
#966=DIRECTION('',(0.,-1.,0.));
#967=DIRECTION('center_axis',(1.,0.,8.70216801143794E-17));
#968=DIRECTION('ref_axis',(-8.70216801143794E-17,4.17302359641899E-25,1.));
#969=DIRECTION('',(0.,-1.,0.));
#970=DIRECTION('center_axis',(1.73008597111533E-19,0.,-1.));
#971=DIRECTION('ref_axis',(1.,-5.55111512312578E-17,1.73008597111533E-19));
#972=CARTESIAN_POINT('',(0.,0.,0.));
#973=CARTESIAN_POINT('Origin',(15.1210767982146,-2.4,7.59029585293028));
#974=CARTESIAN_POINT('',(12.1210767982146,-2.4,7.59029585293028));
#975=CARTESIAN_POINT('Origin',(15.1210767982146,-2.4,7.59029585293028));
#976=CARTESIAN_POINT('',(12.1210767982146,0.500000000000001,7.59029585293028));
#977=CARTESIAN_POINT('',(12.1210767982146,-2.4,7.59029585293028));
#978=CARTESIAN_POINT('Origin',(15.1210767982146,0.500000000000001,7.59029585293028));
#979=CARTESIAN_POINT('Origin',(15.1210767982146,0.500000000000001,7.59029585293028));
#980=CARTESIAN_POINT('',(13.4960767982146,0.500000000000001,7.59029585293028));
#981=CARTESIAN_POINT('Origin',(15.1210767982146,0.500000000000001,7.59029585293028));
#982=CARTESIAN_POINT('Origin',(15.1210767982146,-2.4,7.59029585293028));
#983=CARTESIAN_POINT('',(13.4960767982146,1.1,7.59029585293028));
#984=CARTESIAN_POINT('',(13.4960767982146,-2.4,7.59029585293028));
#985=CARTESIAN_POINT('Origin',(15.1210767982146,1.1,7.59029585293028));
#986=CARTESIAN_POINT('Origin',(4.12107679821465,-1.4,4.59029585293028));
#987=CARTESIAN_POINT('',(16.1210767982146,-1.4,16.3346337114369));
#988=CARTESIAN_POINT('',(4.12107679821465,-1.4,4.59029585293028));
#989=CARTESIAN_POINT('',(10.4607630694437,-1.4,10.7949139767844));
#990=CARTESIAN_POINT('',(16.1210767982146,1.1,16.3346337114369));
#991=CARTESIAN_POINT('',(16.1210767982146,0.1,16.3346337114369));
#992=CARTESIAN_POINT('',(4.12107679821465,1.1,4.59029585293028));
#993=CARTESIAN_POINT('',(16.1210767982146,1.1,16.3346337114369));
#994=CARTESIAN_POINT('',(4.12107679821465,0.100000000000002,4.59029585293028));
#995=CARTESIAN_POINT('Origin',(16.1210767982146,1.6,-0.409704147069717));
#996=CARTESIAN_POINT('',(16.1210767982146,0.0999999999999987,20.3608553522422));
#997=CARTESIAN_POINT('Origin',(16.1210767982146,0.0999999999999988,16.334633711437));
#998=CARTESIAN_POINT('',(16.1210767982146,1.1,20.3608553522422));
#999=CARTESIAN_POINT('',(16.1210767982146,1.6,20.3608553522422));
#1000=CARTESIAN_POINT('',(16.1210767982146,1.1,24.1509569363854));
#1001=CARTESIAN_POINT('Origin',(-3.63888946190418,-2.4,83.0019574444757));
#1002=CARTESIAN_POINT('',(-6.63888946190418,-2.4,83.0019574444757));
#1003=CARTESIAN_POINT('Origin',(-3.63888946190418,-2.4,83.0019574444757));
#1004=CARTESIAN_POINT('',(-6.63888946190418,0.499999999999999,83.0019574444757));
#1005=CARTESIAN_POINT('',(-6.63888946190418,-2.4,83.0019574444757));
#1006=CARTESIAN_POINT('Origin',(-3.63888946190418,0.499999999999999,83.0019574444757));
#1007=CARTESIAN_POINT('Origin',(-32.5371183802012,-2.4,59.4286777250011));
#1008=CARTESIAN_POINT('',(-35.5371183802012,-2.4,59.4286777250011));
#1009=CARTESIAN_POINT('Origin',(-32.5371183802012,-2.4,59.4286777250011));
#1010=CARTESIAN_POINT('',(-35.5371183802012,0.500000000000001,59.4286777250011));
#1011=CARTESIAN_POINT('',(-35.5371183802012,-2.4,59.4286777250011));
#1012=CARTESIAN_POINT('Origin',(-32.5371183802012,0.500000000000001,59.4286777250011));
#1013=CARTESIAN_POINT('Origin',(11.1210767982146,-2.4,76.1192721432731));
#1014=CARTESIAN_POINT('',(8.12107679821463,-2.4,76.1192721432731));
#1015=CARTESIAN_POINT('Origin',(11.1210767982146,-2.4,76.1192721432731));
#1016=CARTESIAN_POINT('',(8.12107679821463,0.499999999999998,76.1192721432731));
#1017=CARTESIAN_POINT('',(8.12107679821463,-2.4,76.1192721432731));
#1018=CARTESIAN_POINT('Origin',(11.1210767982146,0.499999999999998,76.1192721432731));
#1019=CARTESIAN_POINT('Origin',(-43.3153298057141,-2.4,18.990101939738));
#1020=CARTESIAN_POINT('',(-46.3153298057141,-2.4,18.990101939738));
#1021=CARTESIAN_POINT('Origin',(-43.3153298057141,-2.4,18.990101939738));
#1022=CARTESIAN_POINT('',(-46.3153298057141,0.500000000000003,18.990101939738));
#1023=CARTESIAN_POINT('',(-46.3153298057141,-2.4,18.990101939738));
#1024=CARTESIAN_POINT('Origin',(-43.3153298057141,0.500000000000003,18.990101939738));
#1025=CARTESIAN_POINT('Ctrl Pts',(-51.0088431035864,-2.4,29.8229385053575));
#1026=CARTESIAN_POINT('Ctrl Pts',(-51.0088431035864,-1.23333333333333,29.8229385053575));
#1027=CARTESIAN_POINT('Ctrl Pts',(-51.0088431035864,-0.0666666666666631,
29.8229385053575));
#1028=CARTESIAN_POINT('Ctrl Pts',(-51.0088431035864,1.1,29.8229385053575));
#1029=CARTESIAN_POINT('Ctrl Pts',(-51.1390018924339,-2.4,29.8578144477171));
#1030=CARTESIAN_POINT('Ctrl Pts',(-51.1390018924339,-1.23333333333333,29.8578144477171));
#1031=CARTESIAN_POINT('Ctrl Pts',(-51.1390018924339,-0.0666666666666658,
29.857814447717));
#1032=CARTESIAN_POINT('Ctrl Pts',(-51.1390018924339,1.1,29.857814447717));
#1033=CARTESIAN_POINT('Ctrl Pts',(-51.4278548143251,-2.4,29.8158432541262));
#1034=CARTESIAN_POINT('Ctrl Pts',(-51.4278548143251,-1.23333333333333,29.8158432541262));
#1035=CARTESIAN_POINT('Ctrl Pts',(-51.4278548143251,-0.0666666666666596,
29.8158432541262));
#1036=CARTESIAN_POINT('Ctrl Pts',(-51.4278548143251,1.1,29.8158432541262));
#1037=CARTESIAN_POINT('Ctrl Pts',(-51.5978509824878,-2.4,29.5785693735862));
#1038=CARTESIAN_POINT('Ctrl Pts',(-51.5978509824878,-1.23333333333333,29.5785693735862));
#1039=CARTESIAN_POINT('Ctrl Pts',(-51.5978509824878,-0.0666666666666649,
29.5785693735862));
#1040=CARTESIAN_POINT('Ctrl Pts',(-51.5978509824878,1.1,29.5785693735862));
#1041=CARTESIAN_POINT('Ctrl Pts',(-51.6266775665468,-2.4,29.4469385651818));
#1042=CARTESIAN_POINT('Ctrl Pts',(-51.6266775665468,-1.23333333333333,29.4469385651818));
#1043=CARTESIAN_POINT('Ctrl Pts',(-51.6266775665468,-0.0666666666666631,
29.4469385651818));
#1044=CARTESIAN_POINT('Ctrl Pts',(-51.6266775665468,1.1,29.4469385651818));
#1045=CARTESIAN_POINT('',(-51.0088431035864,1.1,29.8229385053575));
#1046=CARTESIAN_POINT('',(-51.6266775665468,1.1,29.4469385651818));
#1047=CARTESIAN_POINT('Ctrl Pts',(-51.0088431035864,1.1,29.8229385053575));
#1048=CARTESIAN_POINT('Ctrl Pts',(-51.1390018924339,1.1,29.857814447717));
#1049=CARTESIAN_POINT('Ctrl Pts',(-51.2834283533795,1.1,29.8368288509216));
#1050=CARTESIAN_POINT('Ctrl Pts',(-51.3981406258929,1.1,29.7670175823889));
#1051=CARTESIAN_POINT('Ctrl Pts',(-51.5128528984064,1.1,29.6972063138562));
#1052=CARTESIAN_POINT('Ctrl Pts',(-51.5978509824878,1.1,29.5785693735862));
#1053=CARTESIAN_POINT('Ctrl Pts',(-51.6266775665468,1.1,29.4469385651818));
#1054=CARTESIAN_POINT('',(-51.6266775665468,-2.4,29.4469385651818));
#1055=CARTESIAN_POINT('Ctrl Pts',(-51.6266775665468,1.1,29.4469385651818));
#1056=CARTESIAN_POINT('Ctrl Pts',(-51.6266775665468,-0.0666666666666631,
29.4469385651818));
#1057=CARTESIAN_POINT('Ctrl Pts',(-51.6266775665468,-1.23333333333333,29.4469385651818));
#1058=CARTESIAN_POINT('Ctrl Pts',(-51.6266775665468,-2.4,29.4469385651818));
#1059=CARTESIAN_POINT('',(-51.0088431035864,-2.4,29.8229385053575));
#1060=CARTESIAN_POINT('Ctrl Pts',(-51.6266775665468,-2.4,29.4469385651818));
#1061=CARTESIAN_POINT('Ctrl Pts',(-51.5978509824878,-2.4,29.5785693735862));
#1062=CARTESIAN_POINT('Ctrl Pts',(-51.5128528984064,-2.4,29.6972063138562));
#1063=CARTESIAN_POINT('Ctrl Pts',(-51.398140625893,-2.4,29.7670175823889));
#1064=CARTESIAN_POINT('Ctrl Pts',(-51.2834283533795,-2.4,29.8368288509216));
#1065=CARTESIAN_POINT('Ctrl Pts',(-51.1390018924339,-2.4,29.8578144477171));
#1066=CARTESIAN_POINT('Ctrl Pts',(-51.0088431035864,-2.4,29.8229385053575));
#1067=CARTESIAN_POINT('Ctrl Pts',(-51.0088431035864,-2.4,29.8229385053575));
#1068=CARTESIAN_POINT('Ctrl Pts',(-51.0088431035864,-1.23333333333333,29.8229385053575));
#1069=CARTESIAN_POINT('Ctrl Pts',(-51.0088431035864,-0.0666666666666631,
29.8229385053575));
#1070=CARTESIAN_POINT('Ctrl Pts',(-51.0088431035864,1.1,29.8229385053575));
#1071=CARTESIAN_POINT('Origin',(-16.7731814789776,-2.4,48.7116180198406));
#1072=CARTESIAN_POINT('',(-53.606085579926,-2.4,17.0891438469809));
#1073=CARTESIAN_POINT('Ctrl Pts',(-51.6266775665468,-2.4,29.4469385651817));
#1074=CARTESIAN_POINT('Ctrl Pts',(-52.2986531504282,-2.4,26.3784969783014));
#1075=CARTESIAN_POINT('Ctrl Pts',(-52.872713615476,-2.4,23.2004476552596));
#1076=CARTESIAN_POINT('Ctrl Pts',(-53.3349809494834,-2.4,19.4696245407873));
#1077=CARTESIAN_POINT('Ctrl Pts',(-53.4302296757221,-2.4,18.7009002046013));
#1078=CARTESIAN_POINT('Ctrl Pts',(-53.5204349733746,-2.4,17.9086755360033));
#1079=CARTESIAN_POINT('Ctrl Pts',(-53.606085579926,-2.4,17.0891438469809));
#1080=CARTESIAN_POINT('',(-54.656578974478,-2.4,-0.409704147069717));
#1081=CARTESIAN_POINT('Ctrl Pts',(-53.606085579926,-2.4,17.0891438469809));
#1082=CARTESIAN_POINT('Ctrl Pts',(-54.0964133926777,-2.4,12.3975345666855));
#1083=CARTESIAN_POINT('Ctrl Pts',(-54.4453075828224,-2.4,6.80689972444307));
#1084=CARTESIAN_POINT('Ctrl Pts',(-54.656578974478,-2.4,-0.409704147069716));
#1085=CARTESIAN_POINT('',(21.1210767982146,-2.4,-0.409704147069717));
#1086=CARTESIAN_POINT('',(-54.656578974478,-2.4,-0.409704147069717));
#1087=CARTESIAN_POINT('',(21.1210767982146,-2.4,76.9730851565356));
#1088=CARTESIAN_POINT('',(21.1210767982146,-2.4,-0.409704147069717));
#1089=CARTESIAN_POINT('',(21.1210768003349,-2.4,82.4899747503593));
#1090=CARTESIAN_POINT('',(21.1210767982146,-2.4,76.9730851565356));
#1091=CARTESIAN_POINT('',(18.1812190838602,-2.4,83.8608529174376));
#1092=CARTESIAN_POINT('',(18.18121908386,-2.4,83.8608529174377));
#1093=CARTESIAN_POINT('',(-12.545613797396,-2.4,97.8074226486224));
#1094=CARTESIAN_POINT('Ctrl Pts',(18.1812190838602,-2.4,83.8608529174376));
#1095=CARTESIAN_POINT('Ctrl Pts',(9.5001272519573,-2.4,87.9089125198007));
#1096=CARTESIAN_POINT('Ctrl Pts',(0.819035420054409,-2.4,91.9569721221637));
#1097=CARTESIAN_POINT('Ctrl Pts',(-7.86205641184844,-2.4,96.0050317245268));
#1098=CARTESIAN_POINT('Ctrl Pts',(-9.08835057382672,-2.4,96.5768620834081));
#1099=CARTESIAN_POINT('Ctrl Pts',(-10.2223850615451,-2.4,97.105671049643));
#1100=CARTESIAN_POINT('Ctrl Pts',(-11.1804755533369,-2.4,97.4505296718903));
#1101=CARTESIAN_POINT('Ctrl Pts',(-11.4828533715839,-2.4,97.5593686580739));
#1102=CARTESIAN_POINT('Ctrl Pts',(-11.82168446742,-2.4,97.6693142184895));
#1103=CARTESIAN_POINT('Ctrl Pts',(-12.1313853561054,-2.4,97.7402144194251));
#1104=CARTESIAN_POINT('Ctrl Pts',(-12.3483724163305,-2.4,97.7898895309034));
#1105=CARTESIAN_POINT('Ctrl Pts',(-12.480755930838,-2.4,97.8041295282089));
#1106=CARTESIAN_POINT('Ctrl Pts',(-12.545613797396,-2.4,97.8074226486224));
#1107=CARTESIAN_POINT('',(-14.6806769131394,-2.4,97.8296762494958));
#1108=CARTESIAN_POINT('Ctrl Pts',(-12.545613797396,-2.4,97.8074226486224));
#1109=CARTESIAN_POINT('Ctrl Pts',(-12.9574462197253,-2.4,97.8283332000931));
#1110=CARTESIAN_POINT('Ctrl Pts',(-13.3698756069905,-2.4,97.8402217120483));
#1111=CARTESIAN_POINT('Ctrl Pts',(-13.7822419511553,-2.4,97.8420438084262));
#1112=CARTESIAN_POINT('Ctrl Pts',(-14.0817549731642,-2.4,97.8433672471604));
#1113=CARTESIAN_POINT('Ctrl Pts',(-14.381310921317,-2.4,97.8393805946645));
#1114=CARTESIAN_POINT('Ctrl Pts',(-14.6806769125995,-2.4,97.8296762328402));
#1115=CARTESIAN_POINT('',(-36.6815656903398,-2.4,75.8287877046249));
#1116=CARTESIAN_POINT('',(-27.5597267211459,-2.4,84.9506265775088));
#1117=CARTESIAN_POINT('',(-49.1427735933106,-2.4,29.3229266870588));
#1118=CARTESIAN_POINT('',(-45.6091295139076,-2.4,42.5106659272558));
#1119=CARTESIAN_POINT('',(-38.0112210330995,-2.4,26.3402361680456));
#1120=CARTESIAN_POINT('Ctrl Pts',(-45.4346758735236,1.6,52.1210796770784));
#1121=CARTESIAN_POINT('Ctrl Pts',(-45.4346758735236,-2.4,52.1210796770784));
#1122=CARTESIAN_POINT('Ctrl Pts',(-45.5357648323716,1.6,51.7872822238818));
#1123=CARTESIAN_POINT('Ctrl Pts',(-45.5357648323716,-2.4,51.7872822238818));
#1124=CARTESIAN_POINT('Ctrl Pts',(-45.6357422071737,1.6,51.4551087620482));
#1125=CARTESIAN_POINT('Ctrl Pts',(-45.6357422071737,-2.4,51.4551087620482));
#1126=CARTESIAN_POINT('Ctrl Pts',(-45.7346806317273,1.6,51.1245064522729));
#1127=CARTESIAN_POINT('Ctrl Pts',(-45.7346806317273,-2.4,51.1245064522729));
#1128=CARTESIAN_POINT('Ctrl Pts',(-46.766691456617,1.6,47.6760468274015));
#1129=CARTESIAN_POINT('Ctrl Pts',(-46.766691456617,-2.4,47.6760468274015));
#1130=CARTESIAN_POINT('Ctrl Pts',(-47.6747353580481,1.6,44.4380092617153));
#1131=CARTESIAN_POINT('Ctrl Pts',(-47.6747353580481,-2.4,44.4380092617153));
#1132=CARTESIAN_POINT('Ctrl Pts',(-48.5890546703019,1.6,41.1768828015766));
#1133=CARTESIAN_POINT('Ctrl Pts',(-48.5890546703019,-2.4,41.1768828015766));
#1134=CARTESIAN_POINT('Ctrl Pts',(-49.5390188315481,1.6,37.7886209318949));
#1135=CARTESIAN_POINT('Ctrl Pts',(-49.5390188315481,-2.4,37.7886209318949));
#1136=CARTESIAN_POINT('Ctrl Pts',(-50.4855229557319,1.6,34.3988508663841));
#1137=CARTESIAN_POINT('Ctrl Pts',(-50.4855229557319,-2.4,34.3988508663841));
#1138=CARTESIAN_POINT('Ctrl Pts',(-51.2821291671417,1.6,30.9726500503303));
#1139=CARTESIAN_POINT('Ctrl Pts',(-51.2821291671417,-2.4,30.9726500503303));
#1140=CARTESIAN_POINT('Ctrl Pts',(-52.1090217033679,1.6,27.4161878462595));
#1141=CARTESIAN_POINT('Ctrl Pts',(-52.1090217033679,-2.4,27.4161878462595));
#1142=CARTESIAN_POINT('Ctrl Pts',(-52.7957735115194,1.6,23.8214056779604));
#1143=CARTESIAN_POINT('Ctrl Pts',(-52.7957735115194,-2.4,23.8214056779604));
#1144=CARTESIAN_POINT('Ctrl Pts',(-53.3349798399186,1.6,19.4696334957541));
#1145=CARTESIAN_POINT('Ctrl Pts',(-53.3349798399186,-2.4,19.4696334957541));
#1146=CARTESIAN_POINT('Ctrl Pts',(-53.4302292175605,1.6,18.7009044023388));
#1147=CARTESIAN_POINT('Ctrl Pts',(-53.4302292175605,-2.4,18.7009044023388));
#1148=CARTESIAN_POINT('Ctrl Pts',(-53.5204349733746,1.6,17.9086755360033));
#1149=CARTESIAN_POINT('Ctrl Pts',(-53.5204349733746,-2.4,17.9086755360033));
#1150=CARTESIAN_POINT('Ctrl Pts',(-53.606085579926,1.6,17.0891438469809));
#1151=CARTESIAN_POINT('Ctrl Pts',(-53.606085579926,-2.4,17.0891438469809));
#1152=CARTESIAN_POINT('',(-53.606085579926,1.1,17.0891438469809));
#1153=CARTESIAN_POINT('Ctrl Pts',(-51.6275002154041,1.1,29.4458766183772));
#1154=CARTESIAN_POINT('Ctrl Pts',(-52.301994186267,1.1,26.3749444212384));
#1155=CARTESIAN_POINT('Ctrl Pts',(-52.8727093561744,1.1,23.2004796039321));
#1156=CARTESIAN_POINT('Ctrl Pts',(-53.3349798399186,1.1,19.4696334957541));
#1157=CARTESIAN_POINT('Ctrl Pts',(-53.4302292175605,1.1,18.7009044023388));
#1158=CARTESIAN_POINT('Ctrl Pts',(-53.5204349733746,1.1,17.9086755360033));
#1159=CARTESIAN_POINT('Ctrl Pts',(-53.606085579926,1.1,17.0891438469809));
#1160=CARTESIAN_POINT('',(-53.606085579926,1.6,17.0891438469809));
#1161=CARTESIAN_POINT('Origin',(-8.42686527176753,0.0999999999999986,77.4814297529842));
#1162=CARTESIAN_POINT('',(-16.0472372672609,-1.4,96.4631159098429));
#1163=CARTESIAN_POINT('',(-8.42686527176753,-1.4,77.4814297529842));
#1164=CARTESIAN_POINT('',(-14.8938939223091,0.0999999999999985,97.6164592426175));
#1165=CARTESIAN_POINT('Origin',(-16.0472372672609,0.0999999999999985,96.4631159098429));
#1166=CARTESIAN_POINT('',(-7.03485174525404,0.0999999999999986,78.0402663498562));
#1167=CARTESIAN_POINT('Origin',(-14.9749164758298,-2.4,97.8182794009336));
#1168=CARTESIAN_POINT('',(-14.8938939223091,-1.4,97.6164592426175));
#1169=CARTESIAN_POINT('',(-14.8938939223091,-1.9,97.6164592426175));
#1170=CARTESIAN_POINT('',(-14.9749164758298,-1.4,97.8182794009336));
#1171=CARTESIAN_POINT('',(-7.03485174525404,-1.4,78.0402663498562));
#1172=CARTESIAN_POINT('',(-14.9749164758298,1.1,97.8182794009336));
#1173=CARTESIAN_POINT('',(-14.9749164758298,1.6,97.8182794009336));
#1174=CARTESIAN_POINT('',(-6.61072212706866,1.1,76.9837962317328));
#1175=CARTESIAN_POINT('Origin',(-21.2351225066673,0.0999999999999998,67.230383384114));
#1176=CARTESIAN_POINT('',(-35.6109844236792,-1.4,76.8993689599821));
#1177=CARTESIAN_POINT('',(-36.6815656903398,-0.105692631812047,75.8287877046248));
#1178=CARTESIAN_POINT('Origin',(-35.6109844236792,0.1,76.8993689599821));
#1179=CARTESIAN_POINT('',(-33.6274147227376,-1.4,75.5652502172));
#1180=CARTESIAN_POINT('',(-21.2351225066673,-1.4,67.230383384114));
#1181=CARTESIAN_POINT('',(-32.6332517840904,0.1,73.0888765045762));
#1182=CARTESIAN_POINT('Origin',(-33.6274147227376,0.1,75.5652502172));
#1183=CARTESIAN_POINT('',(-36.6854427376135,0.1,75.814318367216));
#1184=CARTESIAN_POINT('',(-22.0722654217359,0.0999999999999998,65.9857180717708));
#1185=CARTESIAN_POINT('Origin',(-36.2750308319275,0.1,77.3459964512674));
#1186=CARTESIAN_POINT('Origin',(-32.6332517840932,-2.4,73.0888765045695));
#1187=CARTESIAN_POINT('',(-32.6332517840904,1.1,73.0888765045762));
#1188=CARTESIAN_POINT('Ctrl Pts',(-32.6332517840904,0.1,73.0888765045762));
#1189=CARTESIAN_POINT('Ctrl Pts',(-32.6332517840904,0.433333333333334,73.0888765045762));
#1190=CARTESIAN_POINT('Ctrl Pts',(-32.6332517840904,0.766666666666668,73.0888765045762));
#1191=CARTESIAN_POINT('Ctrl Pts',(-32.6332517840904,1.1,73.0888765045762));
#1192=CARTESIAN_POINT('',(-36.6854427376135,1.1,75.814318367216));
#1193=CARTESIAN_POINT('',(-21.5286995297414,1.1,65.6201239390803));
#1194=CARTESIAN_POINT('',(-36.6854427376135,-0.399998190006144,75.814318367216));
#1195=CARTESIAN_POINT('Origin',(-16.6755677650284,-1.4,51.204287626932));
#1196=CARTESIAN_POINT('',(-14.6806769132211,-1.4,97.8296762494543));
#1197=CARTESIAN_POINT('',(-26.9121558906281,-1.4,85.5981974011894));
#1198=CARTESIAN_POINT('Ctrl Pts',(-14.9749164758298,-1.4,97.8182794009336));
#1199=CARTESIAN_POINT('Ctrl Pts',(-14.8768624844002,-1.4,97.822701926763));
#1200=CARTESIAN_POINT('Ctrl Pts',(-14.7787798981741,-1.4,97.8264960891502));
#1201=CARTESIAN_POINT('Ctrl Pts',(-14.6806769126824,-1.4,97.8296762328375));
#1202=CARTESIAN_POINT('Origin',(-52.2337362374356,1.60000361998771,30.1511476313869));
#1203=CARTESIAN_POINT('',(-49.1427735933106,1.1,29.3229266870588));
#1204=CARTESIAN_POINT('',(-49.1427735933106,1.60000361998771,29.3229266870588));
#1205=CARTESIAN_POINT('',(-38.0112210330995,1.1,26.3402361680456));
#1206=CARTESIAN_POINT('Origin',(-49.0910097842901,1.60000361998771,29.5161118523166));
#1207=CARTESIAN_POINT('',(-45.6091295139076,1.1,42.5106659272558));
#1208=CARTESIAN_POINT('',(-36.6815656903398,0.100001809993855,75.8287877046249));
#1209=CARTESIAN_POINT('Origin',(-16.7731814789776,1.1,48.7116180198406));
#1210=CARTESIAN_POINT('',(-18.8835600703218,1.1,38.8395861787504));
#1211=CARTESIAN_POINT('',(-20.4436635851842,1.1,42.7256688147221));
#1212=CARTESIAN_POINT('',(-49.4722123291675,1.1,4.59029585293028));
#1213=CARTESIAN_POINT('',(-31.257352199525,1.1,24.9849842996541));
#1214=CARTESIAN_POINT('',(-35.7148802267278,1.1,4.59029585293028));
#1215=CARTESIAN_POINT('',(-12.545613797396,1.1,97.8074226486224));
#1216=CARTESIAN_POINT('Ctrl Pts',(-12.545613797396,1.1,97.8074226486224));
#1217=CARTESIAN_POINT('Ctrl Pts',(-12.9574462197253,1.1,97.8283332000931));
#1218=CARTESIAN_POINT('Ctrl Pts',(-13.3698756069905,1.1,97.8402217120483));
#1219=CARTESIAN_POINT('Ctrl Pts',(-13.7822419511553,1.1,97.8420438084262));
#1220=CARTESIAN_POINT('Ctrl Pts',(-14.179906141021,1.1,97.84380094135));
#1221=CARTESIAN_POINT('Ctrl Pts',(-14.5776460008332,1.1,97.8361974776105));
#1222=CARTESIAN_POINT('Ctrl Pts',(-14.9749164758299,1.1,97.8182794009336));
#1223=CARTESIAN_POINT('',(18.1812190838602,1.1,83.8608529174376));
#1224=CARTESIAN_POINT('Ctrl Pts',(18.1812190838602,1.1,83.8608529174376));
#1225=CARTESIAN_POINT('Ctrl Pts',(9.5001272519573,1.1,87.9089125198007));
#1226=CARTESIAN_POINT('Ctrl Pts',(0.819035420054407,1.1,91.9569721221637));
#1227=CARTESIAN_POINT('Ctrl Pts',(-7.86205641184844,1.1,96.0050317245268));
#1228=CARTESIAN_POINT('Ctrl Pts',(-9.08835057382672,1.1,96.5768620834081));
#1229=CARTESIAN_POINT('Ctrl Pts',(-10.2223850615451,1.1,97.105671049643));
#1230=CARTESIAN_POINT('Ctrl Pts',(-11.1804755533369,1.1,97.4505296718903));
#1231=CARTESIAN_POINT('Ctrl Pts',(-11.4828533715839,1.1,97.5593686580739));
#1232=CARTESIAN_POINT('Ctrl Pts',(-11.82168446742,1.1,97.6693142184895));
#1233=CARTESIAN_POINT('Ctrl Pts',(-12.1313853561054,1.1,97.7402144194251));
#1234=CARTESIAN_POINT('Ctrl Pts',(-12.3483724163305,1.1,97.7898895309034));
#1235=CARTESIAN_POINT('Ctrl Pts',(-12.480755930838,1.1,97.8041295282089));
#1236=CARTESIAN_POINT('Ctrl Pts',(-12.545613797396,1.1,97.8074226486224));
#1237=CARTESIAN_POINT('',(21.1210768003349,1.1,82.4899747503593));
#1238=CARTESIAN_POINT('',(12.0269529232321,1.1,86.7306343584627));
#1239=CARTESIAN_POINT('',(21.1210767982146,1.1,76.9730851565356));
#1240=CARTESIAN_POINT('',(21.1210767927839,1.1,62.8423515809063));
#1241=CARTESIAN_POINT('',(21.1210767982146,1.1,-0.409704147069716));
#1242=CARTESIAN_POINT('',(21.1210767982146,1.1,24.1509569363854));
#1243=CARTESIAN_POINT('',(-54.656578974478,1.1,-0.409704147069716));
#1244=CARTESIAN_POINT('',(-35.7148802267278,1.1,-0.409704147069716));
#1245=CARTESIAN_POINT('Ctrl Pts',(-53.606085579926,1.1,17.0891438469809));
#1246=CARTESIAN_POINT('Ctrl Pts',(-54.0964133926777,1.1,12.3975345666855));
#1247=CARTESIAN_POINT('Ctrl Pts',(-54.4453075828224,1.1,6.80689972444307));
#1248=CARTESIAN_POINT('Ctrl Pts',(-54.656578974478,1.1,-0.4097041470697));
#1249=CARTESIAN_POINT('',(-44.9403298057142,1.1,18.990101939738));
#1250=CARTESIAN_POINT('Origin',(-43.3153298057142,1.1,18.990101939738));
#1251=CARTESIAN_POINT('',(9.49607679821464,1.1,76.1192721432731));
#1252=CARTESIAN_POINT('Origin',(11.1210767982146,1.1,76.1192721432731));
#1253=CARTESIAN_POINT('',(-34.1621183802012,1.1,59.4286777250011));
#1254=CARTESIAN_POINT('Origin',(-32.5371183802012,1.1,59.4286777250011));
#1255=CARTESIAN_POINT('',(-5.26388946190417,1.1,83.0019574444758));
#1256=CARTESIAN_POINT('Origin',(-3.63888946190417,1.1,83.0019574444758));
#1257=CARTESIAN_POINT('Origin',(-3.63888946190417,-2.4,83.0019574444758));
#1258=CARTESIAN_POINT('',(-5.26388946190417,0.499999999999999,83.0019574444758));
#1259=CARTESIAN_POINT('Origin',(-3.63888946190417,0.499999999999999,83.0019574444758));
#1260=CARTESIAN_POINT('',(-5.26388946190417,-2.4,83.0019574444758));
#1261=CARTESIAN_POINT('Origin',(-32.5371183802012,-2.4,59.4286777250011));
#1262=CARTESIAN_POINT('',(-34.1621183802012,0.500000000000001,59.4286777250011));
#1263=CARTESIAN_POINT('Origin',(-32.5371183802012,0.500000000000001,59.4286777250011));
#1264=CARTESIAN_POINT('',(-34.1621183802012,-2.4,59.4286777250011));
#1265=CARTESIAN_POINT('Origin',(11.1210767982146,-2.4,76.1192721432731));
#1266=CARTESIAN_POINT('',(9.49607679821464,0.499999999999998,76.1192721432731));
#1267=CARTESIAN_POINT('Origin',(11.1210767982146,0.499999999999998,76.1192721432731));
#1268=CARTESIAN_POINT('',(9.49607679821464,-2.4,76.1192721432731));
#1269=CARTESIAN_POINT('Origin',(-43.3153298057142,-2.4,18.990101939738));
#1270=CARTESIAN_POINT('',(-44.9403298057142,0.500000000000003,18.990101939738));
#1271=CARTESIAN_POINT('Origin',(-43.3153298057142,0.500000000000003,18.990101939738));
#1272=CARTESIAN_POINT('',(-44.9403298057142,-2.4,18.990101939738));
#1273=CARTESIAN_POINT('Origin',(-32.5371183802012,0.500000000000001,59.4286777250011));
#1274=CARTESIAN_POINT('Origin',(-43.3153298057141,0.500000000000003,18.990101939738));
#1275=CARTESIAN_POINT('Origin',(-3.63888946190417,0.499999999999999,83.0019574444758));
#1276=CARTESIAN_POINT('Origin',(11.1210767982146,0.499999999999998,76.1192721432731));
#1277=CARTESIAN_POINT('Origin',(-16.6755677650284,-1.4,51.204287626932));
#1278=CARTESIAN_POINT('',(-49.4722123291675,-1.4,4.59029585293028));
#1279=CARTESIAN_POINT('',(-35.6660733697532,-1.4,4.59029585293028));
#1280=CARTESIAN_POINT('',(-18.8835600703218,-1.4,38.8395861787504));
#1281=CARTESIAN_POINT('',(-49.4722123291675,-1.4,4.59029585293027));
#1282=CARTESIAN_POINT('',(-32.6332517840948,-1.4,73.0888765045705));
#1283=CARTESIAN_POINT('',(-26.9121558906281,-1.4,85.5981974011894));
#1284=CARTESIAN_POINT('Origin',(-14.8334951203391,-1.4,97.6768580439497));
#1285=CARTESIAN_POINT('Ctrl Pts',(-14.6806769132211,-2.4,97.8296762494543));
#1286=CARTESIAN_POINT('Ctrl Pts',(-14.6806769132211,-2.06666666666667,97.8296762494543));
#1287=CARTESIAN_POINT('Ctrl Pts',(-14.6806769132211,-1.73333333333333,97.8296762494543));
#1288=CARTESIAN_POINT('Ctrl Pts',(-14.6806769132211,-1.4,97.8296762494543));
#1289=CARTESIAN_POINT('Origin',(-54.656578974478,1.6,4.59029585293028));
#1290=CARTESIAN_POINT('Ctrl Pts',(-49.4722123291675,1.1,4.59029585293028));
#1291=CARTESIAN_POINT('Ctrl Pts',(-49.4722123291675,0.600000000000003,4.59029585293028));
#1292=CARTESIAN_POINT('Ctrl Pts',(-49.4722123291675,0.100000000000003,4.59029585293028));
#1293=CARTESIAN_POINT('Ctrl Pts',(-49.4722123291675,-0.733333333333331,
4.59029585293028));
#1294=CARTESIAN_POINT('Ctrl Pts',(-49.4722123291675,-1.06666666666666,4.59029585293028));
#1295=CARTESIAN_POINT('Ctrl Pts',(-49.4722123291675,-1.4,4.59029585293028));
#1296=CARTESIAN_POINT('Origin',(-18.8835600703218,1.6,38.8395861787504));
#1297=CARTESIAN_POINT('',(-18.8835600703218,1.6,38.8395861787504));
#1298=CARTESIAN_POINT('Origin',(-49.4722123291675,1.6,4.59029585293027));
#1299=CARTESIAN_POINT('Ctrl Pts',(-53.606085579926,1.6,17.0891438469809));
#1300=CARTESIAN_POINT('Ctrl Pts',(-53.606085579926,-2.4,17.0891438469809));
#1301=CARTESIAN_POINT('Ctrl Pts',(-54.0964133926777,1.6,12.3975345666855));
#1302=CARTESIAN_POINT('Ctrl Pts',(-54.0964133926777,-2.4,12.3975345666855));
#1303=CARTESIAN_POINT('Ctrl Pts',(-54.4453075828224,1.6,6.80689972444307));
#1304=CARTESIAN_POINT('Ctrl Pts',(-54.4453075828224,-2.4,6.80689972444307));
#1305=CARTESIAN_POINT('Ctrl Pts',(-54.656578974478,1.6,-0.409704147069715));
#1306=CARTESIAN_POINT('Ctrl Pts',(-54.656578974478,-2.4,-0.409704147069715));
#1307=CARTESIAN_POINT('',(-54.656578974478,1.6,-0.409704147069717));
#1308=CARTESIAN_POINT('Ctrl Pts',(-12.545613797396,1.6,97.8074226486224));
#1309=CARTESIAN_POINT('Ctrl Pts',(-12.545613797396,-2.4,97.8074226486224));
#1310=CARTESIAN_POINT('Ctrl Pts',(-12.9574462197253,1.6,97.8283332000931));
#1311=CARTESIAN_POINT('Ctrl Pts',(-12.9574462197253,-2.4,97.8283332000931));
#1312=CARTESIAN_POINT('Ctrl Pts',(-13.3698756069905,1.6,97.8402217120483));
#1313=CARTESIAN_POINT('Ctrl Pts',(-13.3698756069905,-2.4,97.8402217120483));
#1314=CARTESIAN_POINT('Ctrl Pts',(-14.1799064377013,1.6,97.8438009426609));
#1315=CARTESIAN_POINT('Ctrl Pts',(-14.1799064377013,-2.4,97.8438009426609));
#1316=CARTESIAN_POINT('Ctrl Pts',(-14.5776465943067,1.6,97.8361974662653));
#1317=CARTESIAN_POINT('Ctrl Pts',(-14.5776465943067,-2.4,97.8361974662653));
#1318=CARTESIAN_POINT('Ctrl Pts',(-14.9749173649896,1.6,97.8182793608299));
#1319=CARTESIAN_POINT('Ctrl Pts',(-14.9749173649896,-2.4,97.8182793608299));
#1320=CARTESIAN_POINT('Ctrl Pts',(-15.0474814646827,1.6,97.8150065019007));
#1321=CARTESIAN_POINT('Ctrl Pts',(-15.0474814646827,-2.4,97.8150065019007));
#1322=CARTESIAN_POINT('Ctrl Pts',(-15.1200297710961,1.6,97.8113895250183));
#1323=CARTESIAN_POINT('Ctrl Pts',(-15.1200297710961,-2.4,97.8113895250183));
#1324=CARTESIAN_POINT('Ctrl Pts',(-15.1925592397949,1.6,97.8074226194096));
#1325=CARTESIAN_POINT('Ctrl Pts',(-15.1925592397949,-2.4,97.8074226194096));
#1326=CARTESIAN_POINT('',(-12.545613797396,1.6,97.8074226486224));
#1327=CARTESIAN_POINT('Ctrl Pts',(18.1812190838602,1.6,83.8608529174376));
#1328=CARTESIAN_POINT('Ctrl Pts',(18.1812190838602,-2.4,83.8608529174376));
#1329=CARTESIAN_POINT('Ctrl Pts',(12.2718052391943,1.6,86.6164578484124));
#1330=CARTESIAN_POINT('Ctrl Pts',(12.2718052391943,-2.4,86.6164578484124));
#1331=CARTESIAN_POINT('Ctrl Pts',(6.36239139452834,1.6,89.3720627793873));
#1332=CARTESIAN_POINT('Ctrl Pts',(6.36239139452834,-2.4,89.3720627793873));
#1333=CARTESIAN_POINT('Ctrl Pts',(-2.31870043737454,1.6,93.4201223817504));
#1334=CARTESIAN_POINT('Ctrl Pts',(-2.31870043737454,-2.4,93.4201223817504));
#1335=CARTESIAN_POINT('Ctrl Pts',(-5.09037842461149,1.6,94.7125770531386));
#1336=CARTESIAN_POINT('Ctrl Pts',(-5.09037842461149,-2.4,94.7125770531386));
#1337=CARTESIAN_POINT('Ctrl Pts',(-9.08835057382672,1.6,96.5768620834081));
#1338=CARTESIAN_POINT('Ctrl Pts',(-9.08835057382672,-2.4,96.5768620834081));
#1339=CARTESIAN_POINT('Ctrl Pts',(-10.2223850615451,1.6,97.105671049643));
#1340=CARTESIAN_POINT('Ctrl Pts',(-10.2223850615451,-2.4,97.105671049643));
#1341=CARTESIAN_POINT('Ctrl Pts',(-11.4828533715839,1.6,97.5593686580739));
#1342=CARTESIAN_POINT('Ctrl Pts',(-11.4828533715839,-2.4,97.5593686580739));
#1343=CARTESIAN_POINT('Ctrl Pts',(-11.82168446742,1.6,97.6693142184895));
#1344=CARTESIAN_POINT('Ctrl Pts',(-11.82168446742,-2.4,97.6693142184895));
#1345=CARTESIAN_POINT('Ctrl Pts',(-12.3483724163305,1.6,97.7898895309034));
#1346=CARTESIAN_POINT('Ctrl Pts',(-12.3483724163305,-2.4,97.7898895309034));
#1347=CARTESIAN_POINT('Ctrl Pts',(-12.480755930838,1.6,97.8041295282089));
#1348=CARTESIAN_POINT('Ctrl Pts',(-12.480755930838,-2.4,97.8041295282089));
#1349=CARTESIAN_POINT('Ctrl Pts',(-12.545613797396,1.6,97.8074226486224));
#1350=CARTESIAN_POINT('Ctrl Pts',(-12.545613797396,-2.4,97.8074226486224));
#1351=CARTESIAN_POINT('',(18.1812190838602,1.6,83.8608529174376));
#1352=CARTESIAN_POINT('Origin',(21.1210768003349,1.6,82.4899747503593));
#1353=CARTESIAN_POINT('',(21.1210768003349,1.6,82.4899747503593));
#1354=CARTESIAN_POINT('Origin',(21.1210767982146,1.6,76.9730851565356));
#1355=CARTESIAN_POINT('',(21.1210767982146,1.6,76.9730851565356));
#1356=CARTESIAN_POINT('Origin',(21.1210767982146,1.6,-0.409704147069717));
#1357=CARTESIAN_POINT('',(21.1210767982146,1.6,-0.409704147069717));
#1358=CARTESIAN_POINT('Origin',(-54.656578974478,1.6,-0.409704147069717));
#1359=UNCERTAINTY_MEASURE_WITH_UNIT(LENGTH_MEASURE(0.01),#1363,
'DISTANCE_ACCURACY_VALUE',
'Maximum model space distance between geometric entities at asserted c
onnectivities');
#1360=UNCERTAINTY_MEASURE_WITH_UNIT(LENGTH_MEASURE(0.01),#1363,
'DISTANCE_ACCURACY_VALUE',
'Maximum model space distance between geometric entities at asserted c
onnectivities');
#1361=(
GEOMETRIC_REPRESENTATION_CONTEXT(3)
GLOBAL_UNCERTAINTY_ASSIGNED_CONTEXT((#1359))
GLOBAL_UNIT_ASSIGNED_CONTEXT((#1363,#1365,#1366))
REPRESENTATION_CONTEXT('','3D')
);
#1362=(
GEOMETRIC_REPRESENTATION_CONTEXT(3)
GLOBAL_UNCERTAINTY_ASSIGNED_CONTEXT((#1360))
GLOBAL_UNIT_ASSIGNED_CONTEXT((#1363,#1365,#1366))
REPRESENTATION_CONTEXT('','3D')
);
#1363=(
LENGTH_UNIT()
NAMED_UNIT(*)
SI_UNIT(.MILLI.,.METRE.)
);
#1364=(
LENGTH_UNIT()
NAMED_UNIT(*)
SI_UNIT($,.METRE.)
);
#1365=(
NAMED_UNIT(*)
PLANE_ANGLE_UNIT()
SI_UNIT($,.RADIAN.)
);
#1366=(
NAMED_UNIT(*)
SI_UNIT($,.STERADIAN.)
SOLID_ANGLE_UNIT()
);
#1367=SHAPE_DEFINITION_REPRESENTATION(#1368,#1369);
#1368=PRODUCT_DEFINITION_SHAPE('',$,#1371);
#1369=SHAPE_REPRESENTATION('',(#732),#1361);
#1370=PRODUCT_DEFINITION_CONTEXT('part definition',#1375,'design');
#1371=PRODUCT_DEFINITION('FusionComponent','FusionComponent',#1372,#1370);
#1372=PRODUCT_DEFINITION_FORMATION('',$,#1377);
#1373=PRODUCT_RELATED_PRODUCT_CATEGORY('FusionComponent',
'FusionComponent',(#1377));
#1374=APPLICATION_PROTOCOL_DEFINITION('international standard',
'automotive_design',2009,#1375);
#1375=APPLICATION_CONTEXT(
'Core Data for Automotive Mechanical Design Process');
#1376=PRODUCT_CONTEXT('part definition',#1375,'mechanical');
#1377=PRODUCT('FusionComponent','FusionComponent',$,(#1376));
#1378=PRESENTATION_STYLE_ASSIGNMENT((#1380));
#1379=PRESENTATION_STYLE_ASSIGNMENT((#1381));
#1380=SURFACE_STYLE_USAGE(.BOTH.,#1382);
#1381=SURFACE_STYLE_USAGE(.BOTH.,#1383);
#1382=SURFACE_SIDE_STYLE('',(#1384));
#1383=SURFACE_SIDE_STYLE('',(#1385));
#1384=SURFACE_STYLE_FILL_AREA(#1386);
#1385=SURFACE_STYLE_FILL_AREA(#1387);
#1386=FILL_AREA_STYLE('Steel - Satin',(#1388));
#1387=FILL_AREA_STYLE('ABS (White)',(#1389));
#1388=FILL_AREA_STYLE_COLOUR('Steel - Satin',#1390);
#1389=FILL_AREA_STYLE_COLOUR('ABS (White)',#1391);
#1390=COLOUR_RGB('Steel - Satin',0.627450980392157,0.627450980392157,0.627450980392157);
#1391=COLOUR_RGB('ABS (White)',0.964705882352941,0.964705882352941,0.952941176470588);
ENDSEC;
END-ISO-10303-21;
